<?xml version="1.0" standalone="no"?>
<!DOCTYPE svg PUBLIC "-//W3C//DTD SVG 20010904//EN"
 "http://www.w3.org/TR/2001/REC-SVG-20010904/DTD/svg10.dtd">
<svg version="1.0" xmlns="http://www.w3.org/2000/svg"
 width="16.000000pt" height="16.000000pt" viewBox="0 0 16.000000 16.000000"
 preserveAspectRatio="xMidYMid meet">
<metadata>
Created by potrace 1.11, written by Peter Selinger 2001-2013
</metadata>
<g transform="translate(0.000000,16.000000) scale(0.004762,-0.004762)"
fill="#000000" stroke="none">
<path d="M2043 3340 c-29 -15 -48 -34 -60 -61 -20 -43 -25 -46 -43 -24 -18 21
-33 19 -60 -10 -32 -34 -107 -81 -157 -99 -33 -12 -43 -12 -54 -1 -17 16 -205
65 -249 65 -17 0 -43 9 -58 20 -15 10 -60 26 -101 34 -41 9 -82 23 -91 31 -16
15 -21 14 -56 -10 -20 -14 -47 -28 -60 -31 -13 -3 -29 -21 -40 -46 -21 -47
-52 -62 -109 -54 -22 3 -45 3 -52 -2 -6 -4 -19 -52 -28 -107 -8 -55 -29 -158
-46 -228 l-31 -128 -42 34 c-22 18 -77 55 -121 82 -44 26 -102 63 -128 83
l-48 35 -40 -18 c-21 -10 -67 -21 -100 -24 l-62 -6 -34 -120 c-19 -68 -31
-132 -29 -148 8 -43 -10 -77 -81 -149 l-67 -67 51 -54 c28 -29 59 -73 70 -98
17 -38 31 -51 101 -92 45 -26 82 -48 82 -50 0 -1 -4 -17 -9 -35 -6 -18 -15
-85 -21 -150 -21 -227 -42 -309 -96 -373 -37 -45 -40 -58 -23 -125 10 -37 18
-47 45 -59 32 -13 144 -110 144 -125 0 -10 -65 -39 -148 -65 -104 -33 -112
-42 -112 -129 0 -66 3 -75 40 -129 41 -60 81 -176 104 -296 16 -81 27 -103 67
-132 45 -32 109 -22 254 41 66 28 125 54 131 56 6 3 32 -43 59 -103 27 -59 54
-114 61 -122 18 -20 157 -26 265 -11 50 6 92 10 95 8 10 -11 -18 -165 -36
-200 l-20 -39 67 -30 c199 -89 284 -95 563 -36 117 25 200 37 253 37 l79 0 -6
26 c-4 14 -4 45 -1 68 6 39 9 42 35 38 28 -4 137 51 208 104 17 14 47 30 65
36 17 6 38 15 45 21 18 14 14 76 -8 126 -20 42 -20 44 -1 70 15 21 26 26 57
24 22 -1 49 -5 61 -9 15 -4 24 0 31 13 15 28 -14 84 -87 170 -33 39 -61 74
-61 77 0 12 257 -193 343 -273 51 -48 123 -114 160 -148 l69 -62 84 3 c46 1
85 4 87 7 2 2 20 29 40 60 19 31 54 69 78 85 65 44 73 67 43 123 -13 25 -24
53 -24 61 0 9 -16 47 -35 85 -19 38 -37 90 -40 115 -11 86 -9 83 -100 124 -47
21 -85 41 -85 44 0 3 21 28 48 57 61 66 201 267 211 303 5 15 12 106 16 203 7
184 1 237 -33 279 -18 22 -17 25 36 148 59 135 72 191 51 209 -8 6 -38 18 -68
27 -80 23 -98 39 -116 98 -8 28 -21 61 -28 72 -8 12 -20 38 -26 59 -14 42 -42
61 -76 53 -13 -3 -53 -40 -90 -81 -63 -70 -119 -115 -143 -115 -6 0 6 33 27
73 99 185 97 388 -6 606 -32 68 -109 146 -183 185 -56 30 -60 31 -206 24 -44
-3 -58 2 -117 41 -62 40 -72 44 -149 48 -71 4 -89 1 -125 -17z m226 -29 c57
-46 105 -65 164 -65 l57 -1 0 -34 c0 -44 20 -29 23 17 1 23 6 32 17 29 11 -2
14 -14 13 -40 -1 -20 2 -37 7 -37 6 0 10 9 10 19 0 41 10 50 40 40 32 -12 43
-41 33 -90 -4 -23 -3 -30 5 -25 7 4 12 20 12 36 0 16 5 32 11 36 12 7 8 -55
-7 -103 -3 -14 -2 -23 4 -23 5 0 15 23 22 50 16 65 30 64 30 -2 0 -38 3 -49
10 -38 5 8 10 26 10 40 0 23 1 23 17 8 16 -17 15 -34 -12 -148 -5 -18 -4 -21
3 -10 5 8 15 39 22 69 11 47 14 52 25 37 10 -14 9 -33 -6 -104 -24 -111 -19
-128 11 -34 13 39 27 69 31 65 16 -19 35 -100 28 -123 -11 -37 -10 -62 1 -55
6 3 10 18 11 33 0 22 2 24 8 8 4 -10 2 -49 -5 -85 -13 -68 -11 -91 4 -50 5 13
12 31 15 39 12 32 6 -78 -8 -143 -24 -116 -113 -269 -130 -224 -4 8 0 26 9 39
25 38 47 98 36 98 -5 0 -10 -5 -10 -12 0 -6 -12 -31 -26 -56 -40 -68 -51 -38
-14 39 16 35 30 75 30 89 -1 18 -11 3 -36 -50 -32 -67 -37 -73 -46 -54 -8 17
-3 37 22 94 17 39 29 75 25 78 -8 9 -22 -14 -42 -70 -26 -71 -44 -62 -23 11 9
32 9 33 -9 17 -18 -17 -19 -16 -26 23 -9 56 21 122 74 158 41 29 53 53 26 53
-12 0 -14 8 -9 40 8 47 -11 56 -21 10 -5 -21 -13 -30 -26 -30 -16 0 -18 5 -13
28 11 51 25 103 31 120 6 14 4 15 -9 4 -8 -7 -18 -30 -21 -51 -3 -22 -13 -50
-22 -63 -17 -23 -17 -22 -11 27 6 53 7 54 -30 -34 -20 -44 -25 -36 -13 18 15
69 5 82 -14 19 -10 -32 -22 -58 -27 -58 -13 0 -12 12 5 95 8 38 15 79 15 90
-1 35 -17 -5 -28 -70 -14 -81 -28 -115 -48 -115 -11 0 -14 5 -9 18 15 36 36
124 32 135 -2 7 -12 -13 -22 -43 -20 -63 -55 -130 -67 -130 -11 0 -10 10 7 66
28 94 13 85 -29 -18 -16 -39 -34 -68 -42 -68 -12 0 -12 4 -4 21 6 11 10 28 8
37 -3 12 -11 4 -26 -25 -12 -24 -27 -43 -32 -43 -13 0 -14 -3 16 71 35 87 44
119 34 119 -4 0 -18 -26 -31 -57 -25 -63 -60 -123 -71 -123 -13 0 -9 15 23 90
43 101 31 123 -15 28 -20 -43 -41 -78 -46 -78 -13 0 -13 23 -1 36 8 8 61 165
61 180 0 3 -4 3 -9 -1 -5 -3 -19 -33 -31 -68 -11 -34 -27 -71 -35 -81 -29 -38
-27 -5 4 71 33 84 36 93 23 93 -5 0 -14 -17 -20 -37 -14 -45 -48 -91 -58 -80
-5 4 -2 18 5 29 13 22 61 154 61 170 0 22 -19 4 -26 -24 -9 -41 -45 -118 -56
-118 -10 0 -10 -2 7 45 19 55 20 71 0 55 -16 -13 -18 -9 -16 30 l2 25 -18 -23
c-20 -25 -33 -20 -33 12 -1 21 -1 21 -15 2 -24 -31 -36 -7 -20 39 17 49 11 59
-8 13 -10 -23 -21 -34 -36 -34 -11 0 -21 2 -21 4 0 14 37 71 58 90 25 22 34
23 116 19 70 -4 93 -9 115 -26z m-1083 -55 c16 -8 54 -17 85 -21 58 -6 106
-31 81 -42 -24 -10 -54 -86 -78 -201 -27 -128 -31 -136 -85 -208 -37 -48 -48
-74 -31 -74 4 0 15 12 25 28 80 124 85 134 101 219 33 176 67 223 159 223 54
0 103 -10 174 -36 35 -13 45 -22 59 -59 11 -30 14 -56 9 -82 -5 -31 -4 -36 7
-25 8 8 13 37 13 77 l0 64 43 17 c24 9 63 31 86 49 73 55 83 59 114 38 15 -11
41 -25 57 -32 104 -43 104 -44 105 -82 0 -55 26 -127 74 -209 l44 -75 -36 -8
c-20 -4 -102 -11 -182 -16 -128 -7 -150 -6 -187 10 -24 10 -43 23 -43 30 0 7
-12 1 -27 -13 -24 -22 -236 -128 -257 -128 -3 0 -36 -14 -72 -32 -60 -29 -68
-31 -97 -19 -42 17 -116 33 -145 32 -35 -1 -196 -49 -255 -75 -36 -16 -70 -42
-103 -80 -27 -30 -57 -56 -67 -56 -49 0 -74 -43 -42 -70 28 -24 8 -90 -27 -90
-20 0 0 132 42 270 53 173 107 393 116 470 4 33 12 64 18 67 6 4 37 10 69 13
55 6 58 5 64 -19 6 -25 7 -25 19 9 12 33 13 30 8 -40 -5 -78 8 -82 20 -5 4 22
11 47 16 55 16 26 12 -114 -5 -153 -17 -42 -20 -76 -5 -61 5 5 17 45 26 89 9
44 20 84 25 89 11 12 67 -39 82 -74 9 -22 11 -23 15 -6 6 29 -17 64 -70 101
-26 19 -48 41 -48 49 0 22 -15 27 -45 16 l-26 -10 21 30 c22 31 82 69 111 70
9 0 29 -6 45 -14z m-811 -386 c6 -10 78 -50 90 -50 4 0 -8 12 -25 26 -17 15
-29 29 -26 31 8 8 164 -86 229 -138 32 -26 68 -54 79 -61 13 -9 18 -19 14 -27
-6 -9 -14 -8 -34 5 -14 9 -41 25 -61 36 l-36 20 26 -23 c14 -13 40 -36 59 -50
l34 -26 -32 -104 c-18 -57 -32 -110 -32 -116 0 -7 -7 -13 -16 -13 -12 0 -14
-4 -7 -12 6 -7 13 -26 17 -41 l7 -28 -47 35 c-62 48 -80 45 -25 -3 36 -32 40
-40 25 -43 -10 -2 -32 9 -48 24 -17 16 -34 28 -38 28 -16 0 -7 -18 17 -34 14
-9 25 -20 25 -25 0 -12 -39 -21 -46 -10 -3 5 -10 7 -15 3 -5 -3 -7 -9 -4 -13
2 -5 -16 -16 -41 -26 -45 -17 -46 -17 -76 5 -36 26 -48 20 -17 -9 38 -35 9
-46 -31 -11 -47 40 -62 38 -22 -3 29 -30 41 -57 26 -57 -3 0 -31 18 -61 40
-80 57 -89 50 -18 -14 33 -30 57 -57 53 -61 -3 -3 -41 14 -84 38 -64 36 -83
53 -102 88 -12 24 -43 65 -68 90 l-45 46 65 63 c72 69 94 117 76 164 -7 20 -6
26 4 26 7 0 19 -7 26 -15 26 -32 31 -13 5 21 -28 36 -28 57 0 34 22 -18 31 -4
12 18 -10 10 -17 22 -17 25 0 10 79 -40 114 -72 26 -23 27 -24 17 -4 -6 12
-31 36 -55 54 -42 29 -62 56 -52 66 7 7 63 -25 101 -58 19 -17 35 -26 35 -21
0 6 -17 23 -37 38 -79 57 -119 114 -82 114 5 0 48 -37 94 -81 47 -45 85 -77
85 -71 0 5 -31 44 -70 85 -38 41 -70 78 -70 81 0 20 40 -2 91 -51 69 -65 77
-62 18 7 -23 27 -38 53 -34 59 8 14 22 14 30 1z m2298 -22 l47 -10 -25 -20
c-14 -11 -37 -39 -51 -64 -33 -56 -30 -115 13 -232 39 -107 120 -207 223 -278
87 -59 105 -92 96 -169 -10 -87 -104 -262 -181 -337 l-36 -35 -54 20 -54 20
20 39 c11 22 35 61 53 86 42 59 59 92 48 92 -4 0 -18 -20 -30 -45 -12 -25 -29
-48 -36 -51 -8 -3 -34 -31 -56 -61 -61 -80 -73 -54 -15 33 25 38 45 72 45 77
0 12 -17 8 -23 -6 -8 -22 -99 -128 -104 -123 -5 4 100 166 166 257 7 10 10 19
5 19 -5 0 -35 -35 -67 -78 -85 -113 -127 -159 -127 -138 0 18 43 90 60 101 15
9 83 115 78 121 -2 2 -20 -18 -40 -44 -45 -58 -98 -110 -98 -94 0 15 39 82 63
109 35 39 11 36 -27 -3 -40 -41 -47 -29 -16 31 23 45 19 56 -12 29 -24 -21
-23 -25 -1 49 6 20 5 21 -11 8 -9 -8 -19 -11 -23 -7 -10 10 13 51 53 96 20 22
35 42 33 45 -7 7 -21 -7 -78 -73 -34 -40 -57 -60 -63 -54 -7 7 -1 24 16 48 39
57 31 65 -15 15 -43 -46 -62 -50 -33 -7 26 41 6 45 -26 6 -16 -19 -31 -33 -34
-30 -6 7 49 116 80 157 41 54 27 50 -26 -8 -38 -42 -49 -50 -49 -34 -1 11 12
44 28 73 33 58 28 70 -7 17 -20 -32 -42 -46 -42 -27 0 4 16 32 35 62 53 85 31
81 -33 -7 l-19 -26 -55 45 c-51 42 -55 47 -40 62 21 21 11 29 -22 16 -25 -9
-34 -5 -102 51 -98 80 -142 125 -165 172 l-19 37 89 0 c105 0 307 33 406 65
74 25 155 26 258 3z m-694 -180 c46 -49 138 -135 203 -189 65 -55 125 -114
134 -132 18 -33 22 -87 10 -125 -6 -18 -11 -21 -22 -11 -7 6 -11 15 -8 20 3 5
-2 12 -10 15 -9 3 -16 13 -16 21 0 8 -8 13 -17 11 -14 -2 -19 6 -23 37 -4 33
-6 36 -12 18 -10 -38 -31 -28 -25 12 3 19 2 35 -4 35 -5 0 -9 -7 -9 -16 0 -9
-6 -14 -12 -11 -8 2 -12 17 -10 38 2 32 2 33 -13 15 -14 -19 -15 -18 -16 20
-1 21 -3 31 -6 22 -9 -35 -32 -19 -36 25 l-3 42 -8 -32 c-11 -43 -36 -33 -37
16 l-1 36 -9 -32 c-10 -35 -39 -46 -39 -15 -1 16 -1 16 -14 0 -23 -30 -27 -20
-25 52 3 90 -6 100 -14 15 -6 -66 -20 -105 -37 -105 -6 0 -10 15 -10 33 0 24
-3 28 -10 17 -5 -8 -10 -27 -10 -41 0 -15 -7 -33 -17 -40 -15 -13 -16 -8 -11
59 3 39 2 72 -3 72 -8 0 -29 -88 -29 -124 0 -31 -20 -86 -31 -86 -6 0 -7 37
-4 93 5 69 3 88 -5 75 -6 -10 -13 -48 -16 -85 -7 -96 -12 -113 -31 -113 -14 0
-15 12 -11 90 6 97 -6 114 -17 25 -8 -63 -25 -74 -26 -17 0 20 -4 46 -9 57 -7
15 -9 10 -9 -24 -1 -75 -21 -33 -29 60 l-8 84 -7 -74 c-4 -41 -9 -77 -12 -79
-13 -14 -25 17 -25 69 0 70 -18 80 -22 12 -4 -63 -28 -71 -28 -9 0 25 -4 46
-10 46 -5 0 -10 -16 -10 -36 0 -60 -24 -35 -30 32 l-5 59 -6 -53 c-10 -83 -25
-85 -39 -5 l-8 48 -1 -50 c-1 -33 -4 -45 -10 -36 -5 7 -14 10 -20 7 -7 -5 -11
2 -11 19 0 17 -5 25 -12 22 -7 -2 -13 -14 -12 -26 0 -11 -3 -21 -8 -21 -12 0
-10 26 6 64 18 44 55 69 162 110 94 36 216 94 249 119 18 14 25 12 80 -15 43
-22 84 -55 144 -120z m-766 -17 c14 -6 29 -23 36 -42 15 -42 15 -42 -14 -23
-14 9 -28 14 -32 11 -10 -10 18 -37 38 -37 10 0 23 -9 29 -21 7 -12 18 -18 26
-15 8 3 14 -1 14 -9 0 -22 -46 -30 -65 -11 -9 9 -24 16 -32 16 -13 0 -11 -6 8
-26 l24 -26 -35 7 c-43 9 -82 29 -99 49 -15 18 -31 21 -31 7 0 -5 20 -22 45
-38 53 -33 58 -48 13 -39 -94 20 -97 20 -91 -3 6 -22 5 -22 -32 -7 -44 19 -45
19 -45 7 0 -5 10 -12 23 -15 12 -3 31 -13 41 -21 19 -14 19 -16 3 -51 -13 -27
-22 -34 -35 -29 -9 4 -23 9 -29 12 -7 3 -13 0 -13 -5 0 -6 9 -14 20 -17 27 -9
27 -39 0 -32 -11 3 -23 1 -26 -5 -3 -5 3 -12 15 -15 11 -3 27 -16 36 -29 17
-26 7 -31 -26 -14 -12 7 -19 7 -19 1 0 -12 85 -51 111 -51 25 0 24 8 -3 38
-21 22 -22 24 -4 20 15 -2 22 5 29 29 l9 32 34 -22 c19 -12 34 -28 34 -35 0
-7 -18 -32 -41 -57 -34 -36 -44 -43 -59 -35 -10 6 -27 10 -37 10 -17 -1 -17
-1 1 -15 10 -8 24 -16 30 -18 27 -10 -3 -15 -39 -7 l-40 9 28 -24 c24 -22 27
-29 19 -57 -8 -29 -12 -33 -38 -30 -27 2 -28 1 -10 -13 10 -8 23 -16 29 -18 6
-2 7 -9 3 -16 -6 -8 -20 -10 -47 -6 -25 4 -39 3 -39 -4 0 -6 10 -11 23 -11 25
0 47 -17 47 -36 0 -9 -11 -9 -41 -3 -54 12 -61 4 -15 -17 65 -31 38 -58 -33
-33 -50 18 -48 3 3 -20 48 -21 53 -29 36 -61 -10 -18 -7 -19 22 -15 18 3 27 3
21 -1 -19 -9 -16 -24 5 -24 10 0 28 -7 40 -16 12 -8 26 -13 31 -10 10 7 23
-19 14 -28 -4 -3 -20 -6 -37 -6 l-31 -1 28 -15 c15 -8 35 -13 45 -12 11 2 18
-4 20 -18 3 -19 0 -20 -45 -13 -26 4 -64 12 -83 18 -42 13 -50 14 -50 2 0 -8
86 -35 159 -49 19 -4 36 -13 39 -21 4 -11 -5 -13 -47 -8 -32 4 -49 2 -46 -3 4
-6 18 -10 33 -10 15 -1 38 -7 51 -14 l23 -13 -23 -6 c-13 -4 -37 -7 -54 -7
-26 -1 -28 -2 -11 -11 10 -6 38 -9 62 -6 29 3 44 0 48 -8 6 -18 -16 -25 -75
-25 -33 0 -48 -4 -44 -11 8 -11 185 -9 185 3 0 4 -16 19 -35 34 -23 17 -39 40
-46 68 -6 22 -20 68 -30 100 -35 109 -18 150 20 48 18 -52 26 -61 60 -74 27
-11 45 -27 58 -51 10 -20 48 -58 85 -86 l67 -51 130 0 c119 0 131 2 144 20 14
21 14 21 21 -2 3 -13 6 -34 6 -49 0 -23 -5 -26 -82 -42 -46 -10 -94 -20 -108
-23 -19 -4 -39 5 -80 36 -64 49 -113 75 -157 83 -52 10 -38 -8 20 -26 34 -11
75 -36 117 -72 56 -48 69 -55 95 -50 17 3 48 8 70 10 22 2 59 10 82 18 44 16
53 14 53 -13 0 -19 -105 -80 -137 -80 -11 0 -49 20 -86 45 -75 50 -132 81
-189 101 -63 22 -43 -1 30 -33 37 -16 109 -60 161 -98 l93 -67 22 26 c11 14
42 34 68 45 55 23 71 47 59 88 -5 15 -12 49 -16 75 -3 26 -15 57 -26 70 -16
17 -19 19 -15 5 4 -14 1 -16 -17 -12 -12 3 -60 -1 -106 -9 -99 -18 -114 -13
-179 58 -54 58 -62 81 -62 167 0 56 -7 87 -36 161 -20 51 -42 101 -49 111 -11
16 -11 27 0 64 7 24 19 51 27 60 22 27 90 53 140 53 26 0 82 9 123 21 92 25
121 20 174 -29 54 -49 110 -95 131 -107 10 -5 36 -33 59 -62 36 -46 41 -59 41
-103 0 -52 10 -62 32 -32 7 10 22 22 33 26 13 6 16 10 7 13 -7 3 -19 -1 -28
-7 -28 -24 -26 -1 2 24 22 19 25 25 12 26 -9 0 -20 -5 -24 -12 -5 -8 -10 -6
-15 8 -5 14 1 25 20 42 22 20 23 23 6 19 -11 -3 -29 -8 -40 -12 -14 -5 -11 1
10 19 34 29 28 33 -15 11 -43 -22 -45 -2 -2 23 52 31 97 70 90 78 -4 3 -21 -5
-39 -20 -28 -24 -92 -57 -108 -56 -3 1 10 15 29 32 32 28 29 30 -15 12 -23 -9
-18 14 6 26 11 7 19 14 16 16 -3 3 -20 -4 -38 -15 -45 -28 -54 -26 -27 4 12
14 28 25 35 25 7 0 13 5 13 10 0 6 -7 10 -15 10 -8 0 -15 -4 -15 -8 0 -5 -17
-16 -37 -25 l-38 -17 44 40 c51 47 51 65 0 20 -37 -33 -72 -41 -62 -14 5 13 2
15 -15 10 -17 -6 -21 -4 -16 8 4 12 0 16 -16 16 -18 0 -20 4 -14 22 6 20 5 21
-8 10 -17 -14 -68 -1 -68 17 0 26 25 61 43 61 11 0 60 8 107 17 l88 16 48 -31
c26 -18 55 -32 64 -32 22 0 53 -35 83 -96 14 -27 33 -57 42 -64 26 -22 37 -60
36 -120 -1 -55 -25 -225 -37 -267 -6 -21 -5 -21 25 -10 34 13 41 27 14 27 -15
0 -16 2 -3 10 8 5 11 12 7 16 -4 4 1 13 11 20 16 13 16 13 0 14 -23 0 -23 16
-1 24 15 6 15 8 3 16 -13 8 -12 12 5 24 16 13 17 15 4 16 -12 0 -15 7 -11 25
l4 25 37 -30 c20 -17 42 -35 49 -41 18 -15 15 -65 -8 -109 -11 -22 -20 -46
-20 -54 0 -8 -21 -32 -47 -53 -26 -21 -73 -62 -104 -91 l-56 -53 -51 41 c-28
22 -54 40 -57 40 -4 0 17 -27 46 -60 29 -33 58 -60 65 -60 8 0 14 -7 14 -15 0
-8 5 -15 11 -15 7 0 10 14 7 35 -4 38 9 49 16 13 3 -13 7 -32 9 -43 3 -11 5 7
6 39 0 33 4 56 8 53 3 -4 6 -20 5 -37 0 -16 4 -30 9 -30 5 0 9 24 10 53 1 41
3 47 9 27 7 -23 8 -22 9 11 1 30 8 40 45 66 24 17 47 29 50 26 15 -16 3 -57
-24 -85 -16 -16 -30 -33 -30 -38 0 -13 23 -18 45 -9 11 4 35 8 53 8 19 1 31 5
27 11 -3 5 -19 7 -34 4 -17 -4 -32 -1 -36 5 -7 13 13 43 24 37 4 -3 13 -1 21
4 12 7 12 10 -3 16 -23 9 -22 34 2 34 29 0 35 18 9 22 -38 5 -33 32 8 47 27
10 33 16 23 22 -8 4 -24 6 -36 2 -39 -9 -26 16 17 33 40 16 57 41 20 29 -29
-9 -27 28 3 49 22 16 22 16 -10 10 -49 -8 -43 20 8 46 52 27 46 33 -14 15 -51
-15 -75 -3 -27 14 45 15 36 21 -22 15 l-53 -6 30 22 c17 11 45 27 64 36 19 8
32 17 29 19 -3 3 -25 -3 -49 -14 -116 -50 -129 -30 -15 25 61 29 61 38 -1 18
-14 -5 -15 -4 -3 5 24 17 4 24 -35 11 -59 -20 -52 -4 14 29 34 17 61 36 61 41
0 6 -17 2 -37 -8 -49 -25 -93 -35 -93 -22 0 5 14 16 30 25 17 9 30 20 30 25 0
14 -4 13 -50 -11 -56 -29 -64 -15 -15 27 45 38 35 45 -20 13 -44 -26 -57 -18
-25 16 23 25 23 25 2 25 -11 0 -24 -5 -28 -12 -5 -8 -10 -6 -14 8 -5 15 3 27
37 53 24 19 41 36 38 39 -3 3 -15 -4 -28 -16 -25 -24 -71 -29 -83 -10 -4 6 7
23 27 39 42 35 32 37 -28 4 -61 -35 -89 -30 -49 8 16 15 26 31 22 35 -4 4 -13
-1 -20 -10 -7 -9 -24 -20 -38 -23 -37 -9 -47 13 -17 36 13 10 19 19 12 19 -6
0 -14 -4 -17 -9 -3 -5 -27 -14 -53 -20 -27 -7 -57 -14 -68 -18 -29 -8 61 83
101 102 73 34 169 11 218 -53 11 -15 63 -71 115 -125 l95 -98 42 7 c40 6 46 3
86 -34 l43 -41 4 -155 c4 -179 -6 -246 -56 -399 -61 -185 -120 -247 -238 -247
-97 0 -122 12 -91 43 9 8 12 24 9 36 -5 19 -1 21 43 22 50 1 50 3 1 13 -22 5
-28 12 -25 29 2 17 11 23 43 27 30 4 35 7 22 13 -10 4 -27 7 -38 7 -11 0 -23
10 -28 22 -6 17 -12 3 -30 -68 -25 -99 -53 -157 -89 -180 -13 -8 -51 -26 -85
-39 -91 -34 -150 -68 -212 -121 -52 -44 -57 -46 -80 -34 -23 12 -37 41 -49
100 -3 14 -3 4 -2 -23 2 -26 0 -47 -5 -47 -15 0 -49 39 -49 58 -1 15 -2 15
-15 -2 -17 -22 -16 -22 -34 19 l-14 30 -7 -25 -7 -25 -10 25 c-6 14 -13 32
-16 40 -3 8 -6 -1 -6 -20 -1 -42 -13 -32 -35 30 l-16 45 3 -42 c1 -24 -1 -43
-5 -43 -21 0 -197 62 -224 79 -53 32 -50 56 11 96 82 52 104 104 34 80 -62
-22 -103 -18 -172 16 -71 36 -105 64 -118 97 -7 19 -14 22 -32 16 -82 -27
-139 39 -207 245 l-42 123 27 97 c14 53 30 113 36 133 l10 38 42 -21 c41 -21
57 -35 57 -53 0 -8 -20 -5 -67 9 -14 4 -23 3 -23 -3 0 -11 137 -58 145 -50 4
3 -5 17 -19 31 -14 15 -26 35 -26 46 0 32 -11 51 -30 51 -11 0 -22 5 -25 10
-3 6 -12 10 -18 10 -7 0 -1 -9 13 -20 27 -21 12 -28 -19 -8 -18 11 -18 14 -3
45 10 21 19 29 26 24 6 -5 20 -11 31 -15 12 -3 9 -4 -7 -2 -30 3 -38 -8 -12
-18 35 -13 44 -7 44 32 -1 32 -2 35 -13 20 -19 -24 -47 -5 -47 32 0 36 12 38
40 8 l20 -22 0 28 c0 22 -4 27 -16 22 -21 -8 -87 57 -82 81 2 10 18 21 36 27
21 6 44 25 64 53 42 58 64 71 198 114 122 40 154 45 193 30z m104 -13 c18 -7
32 -15 30 -18 -2 -3 -10 -20 -17 -37 -8 -18 -20 -33 -28 -33 -10 0 -52 77 -52
96 0 8 34 4 67 -8z m1767 -133 c25 -25 42 -56 57 -105 11 -38 26 -73 32 -79 7
-5 39 -20 72 -32 l60 -23 -40 -8 c-22 -5 -51 -11 -64 -14 -17 -4 -21 -8 -13
-16 7 -7 26 -7 63 1 36 8 56 8 63 1 7 -7 4 -10 -10 -10 -11 0 -29 -7 -40 -15
-18 -13 -16 -14 21 -15 77 -1 9 -21 -108 -32 -100 -9 -112 -8 -123 7 -9 13
-20 16 -39 11 -16 -4 -24 -3 -21 3 4 5 20 12 36 16 16 4 32 11 36 16 3 6 -5 8
-20 4 -14 -3 -37 -7 -50 -10 -14 -3 -28 -1 -31 5 -3 5 0 10 7 10 7 1 27 7 43
16 29 14 28 14 -32 9 -66 -5 -75 -1 -45 21 15 12 11 13 -30 14 -66 0 -68 16
-4 30 30 6 60 18 67 26 11 13 9 14 -12 9 -13 -3 -49 -10 -79 -15 -46 -7 -58
-6 -73 9 -17 16 -15 18 23 35 24 10 67 47 107 92 77 86 95 91 147 39z m-1584
-56 c98 -38 136 -62 160 -101 18 -31 19 -33 2 -39 -10 -4 -28 2 -42 13 -59 45
-103 69 -97 54 9 -22 -10 -20 -30 4 -21 25 -35 26 -26 3 5 -13 -3 -11 -30 10
-20 15 -37 24 -37 18 0 -5 5 -13 10 -16 15 -9 12 -25 -4 -25 -8 0 -26 15 -40
33 -18 22 -26 27 -26 15 0 -9 4 -20 10 -23 5 -3 15 -16 21 -27 l11 -21 -29 21
c-16 12 -36 28 -43 37 -7 8 -17 15 -22 15 -5 0 7 -19 26 -42 20 -23 34 -43 32
-45 -9 -9 -64 27 -80 51 -9 15 -22 26 -28 26 -7 0 10 -22 37 -50 27 -27 46
-52 42 -56 -7 -7 -59 27 -104 70 -55 51 -37 22 24 -38 31 -31 54 -59 50 -62
-9 -9 -57 23 -84 55 -11 14 -24 23 -28 19 -4 -4 14 -29 39 -56 25 -27 46 -56
46 -64 0 -18 28 -44 37 -35 3 4 0 14 -7 22 -11 14 -7 22 26 56 68 70 96 82
167 75 120 -13 153 -35 141 -94 -6 -28 -11 -31 -90 -51 -46 -12 -108 -21 -138
-21 -70 0 -160 -41 -175 -79 -21 -56 -21 -93 -2 -135 82 -177 85 -188 82 -268
-2 -91 3 -104 78 -182 l56 -58 -40 21 c-61 31 -85 53 -113 106 -19 34 -36 51
-57 58 -43 14 -60 32 -80 82 -9 25 -23 45 -31 45 -8 0 -14 5 -14 10 0 6 -10 4
-22 -4 -20 -13 -26 -13 -42 0 -11 8 -30 14 -43 14 l-23 0 25 50 c14 27 25 59
25 71 0 24 35 147 48 167 5 7 15 -25 25 -83 18 -101 43 -175 59 -175 6 0 7 8
3 18 -20 52 -47 174 -48 223 -2 47 3 63 28 99 33 47 64 101 65 113 0 4 -9 7
-21 7 -11 0 -35 11 -53 25 -35 27 -46 24 -46 -11 0 -29 -14 -38 -30 -19 -10
12 -9 27 4 74 9 33 14 71 10 85 -6 25 -5 25 32 14 43 -11 77 -7 179 22 83 23
120 19 225 -21z m-814 -241 c-20 -23 -36 -52 -36 -64 0 -13 -8 -24 -20 -27
-11 -3 -20 -10 -20 -16 0 -6 9 -11 20 -11 25 0 25 -9 3 -26 -17 -13 -17 -13 0
-14 27 0 22 -40 -5 -40 -21 0 -21 0 -2 -15 19 -15 19 -15 -4 -35 -13 -11 -39
-22 -58 -26 -19 -3 -34 -10 -34 -15 0 -7 43 -4 77 6 7 2 15 0 18 -5 8 -12 -35
-40 -62 -40 -12 0 -25 -5 -29 -11 -4 -7 0 -9 12 -6 49 15 94 19 94 8 0 -15
-31 -29 -79 -37 -23 -4 -44 -11 -48 -17 -4 -6 6 -7 28 -3 93 17 109 18 109 8
0 -5 -7 -13 -16 -16 -8 -3 -12 -11 -9 -17 4 -6 13 -8 20 -5 7 2 16 -3 20 -12
3 -9 2 -18 -3 -20 -5 -1 -18 -10 -28 -18 -18 -15 -17 -15 13 -10 23 4 33 1 37
-11 4 -9 5 -16 4 -17 -2 -1 -13 -7 -25 -13 -13 -7 -30 -13 -38 -13 -8 0 -15
-5 -15 -11 0 -10 20 -8 73 7 9 3 17 1 17 -5 0 -12 -57 -42 -112 -60 -21 -7
-38 -17 -38 -22 0 -15 17 -11 69 15 53 28 102 37 108 20 2 -5 -13 -18 -33 -27
-48 -23 -38 -31 14 -13 23 9 44 11 47 6 7 -11 -24 -32 -97 -64 -32 -14 -58
-30 -58 -36 0 -15 9 -13 57 15 24 14 62 33 85 41 l42 15 -24 -26 c-13 -13 -31
-27 -42 -31 -10 -3 -18 -10 -18 -15 0 -14 28 -11 33 4 2 6 7 9 11 6 4 -4 -3
-17 -16 -29 -16 -15 -19 -24 -10 -27 27 -10 -5 -63 -40 -63 -10 0 -18 -4 -18
-10 0 -14 33 -13 48 2 9 9 12 8 12 -8 0 -12 -13 -27 -35 -38 -19 -11 -35 -23
-35 -28 0 -10 3 -10 35 2 23 9 26 8 21 -6 -3 -8 -6 -19 -6 -24 0 -4 -13 -13
-30 -20 -36 -15 -40 -35 -5 -26 21 5 25 3 25 -18 0 -19 -7 -25 -35 -30 -35 -7
-52 -20 -37 -30 5 -3 21 2 37 10 26 13 30 13 38 -2 12 -21 36 -45 67 -65 l25
-17 -30 -8 c-69 -17 -210 37 -319 123 l-58 46 48 19 c81 32 84 51 5 28 -19 -5
-45 -7 -59 -3 l-25 6 24 12 c13 7 41 15 62 19 20 4 37 12 37 18 0 6 -11 8 -27
4 -106 -24 -190 -12 -106 14 44 14 73 37 33 26 -52 -15 -98 -18 -115 -9 -14 8
-9 12 29 23 25 7 51 19 57 26 14 17 2 18 -34 5 -39 -15 -120 -17 -125 -3 -2 7
4 12 13 12 28 0 115 32 115 42 0 6 -7 7 -18 2 -9 -4 -41 -10 -71 -12 -54 -4
-54 -4 -47 22 4 15 20 48 35 74 39 63 57 138 76 316 17 169 21 187 45 236 35
69 89 101 269 159 l116 38 3 -24 c2 -15 -9 -37 -32 -65z m2624 -67 c0 -13 -85
-25 -107 -16 -15 7 -13 9 12 15 45 11 95 11 95 1z m-154 -32 c9 -8 14 -32 14
-75 0 -62 1 -65 49 -118 61 -68 66 -90 56 -300 -8 -186 -10 -193 -109 -343
-70 -107 -125 -164 -192 -202 -26 -15 -45 -34 -52 -55 -7 -17 -31 -68 -55
-111 l-42 -80 -42 3 c-23 2 -67 -2 -98 -8 -76 -16 -108 -6 -172 52 -31 27 -69
57 -87 65 l-31 14 35 -6 c95 -16 118 -17 141 -5 13 7 47 15 76 16 105 6 283
124 283 189 0 40 20 71 60 94 31 17 40 29 45 61 5 30 2 45 -14 67 -11 15 -29
54 -40 85 l-20 57 21 3 c12 2 23 9 26 17 3 10 -2 12 -20 8 -14 -4 -32 -1 -42
6 -16 12 -14 15 25 27 l44 14 -62 10 c-34 6 -64 14 -67 17 -3 3 41 18 99 34
109 30 134 40 123 50 -4 4 -44 -3 -90 -14 -105 -27 -183 -36 -191 -24 -4 6 17
12 51 16 65 6 194 46 187 57 -3 5 -39 -1 -81 -12 -42 -10 -99 -18 -127 -16
l-52 3 55 13 c30 7 65 15 78 18 44 9 21 19 -35 16 -36 -2 -54 0 -48 5 13 12
86 33 114 33 14 0 21 5 18 13 -4 12 -11 12 -71 0 -20 -4 -27 -2 -22 6 4 6 15
11 24 11 9 1 33 10 52 21 l35 19 -50 -5 c-46 -6 -49 -5 -31 9 11 9 34 19 53
22 18 3 30 10 28 15 -3 4 -20 6 -37 2 -46 -9 -32 16 22 37 24 9 46 23 48 30 3
9 -1 9 -16 1 -11 -6 -30 -11 -41 -11 -32 0 -15 27 25 40 45 15 57 34 15 25
-40 -9 -43 16 -3 33 21 9 22 11 5 8 -20 -4 -23 0 -23 31 l0 36 71 -6 c39 -3
77 -11 85 -18z m134 -18 c0 -11 -47 -28 -77 -29 -26 -1 -29 8 -11 26 14 14 88
16 88 3z m-26 -55 c-5 -13 -34 -26 -61 -26 -23 0 -14 28 10 33 45 9 56 7 51
-7z m-24 -60 c0 -24 -18 -28 -30 -6 -9 17 -8 20 10 20 11 0 20 -6 20 -14z
m-625 -246 c100 -29 167 -64 230 -122 61 -56 93 -104 125 -190 11 -31 27 -62
35 -68 8 -7 15 -17 15 -21 0 -5 -26 -38 -59 -72 -42 -46 -60 -74 -65 -103 -12
-59 -21 -70 -94 -113 -47 -28 -87 -43 -134 -51 -37 -6 -79 -15 -93 -20 -41
-16 -102 -12 -187 11 l-78 21 58 37 c86 56 174 157 221 253 23 46 44 97 47
113 5 29 3 31 -43 47 -26 9 -67 20 -91 23 -35 6 -42 10 -37 23 11 29 55 216
55 235 0 22 10 21 95 -3z m-1755 -205 c15 -1 42 -19 68 -45 38 -38 42 -47 43
-94 0 -38 3 -46 9 -31 5 11 9 32 9 48 1 15 6 27 12 27 8 0 9 -21 5 -67 -5 -66
-5 -67 8 -33 8 19 15 45 15 58 1 12 6 22 12 22 8 0 10 -15 5 -47 -4 -27 -9
-82 -11 -123 l-4 -75 22 107 c23 112 40 150 37 83 -3 -57 1 -102 7 -87 7 18
23 4 23 -20 0 -17 2 -18 15 -8 20 16 19 11 -5 -41 -11 -24 -19 -55 -19 -69 0
-20 6 -13 30 33 16 31 31 57 34 57 2 0 19 -7 38 -16 29 -14 35 -24 50 -82 31
-120 18 -249 -30 -296 -14 -14 -48 -33 -76 -42 -29 -9 -68 -30 -87 -45 -19
-15 -51 -30 -70 -33 -125 -18 -121 -19 -110 10 16 41 12 93 -16 194 -32 117
-35 124 -93 183 -45 47 -46 49 -46 115 0 37 13 125 28 196 15 71 27 131 27
133 0 3 10 1 23 -3 12 -5 33 -9 47 -9z m1644 -111 c24 -27 35 -33 41 -24 5 9
-2 22 -21 38 l-29 24 49 -5 c26 -3 55 -12 63 -20 45 -45 -99 -265 -233 -358
-63 -43 -117 -59 -198 -59 -93 0 -132 12 -245 72 -73 40 -90 53 -77 60 10 5
23 5 35 -2 33 -17 46 -12 26 10 -31 34 3 22 45 -16 53 -48 62 -37 15 15 -21
23 -35 41 -32 41 12 0 83 -52 99 -73 9 -12 20 -19 24 -15 4 4 -12 27 -36 50
-51 51 -36 63 26 19 60 -42 74 -39 30 6 -25 26 -32 39 -23 45 19 12 23 10 72
-32 25 -22 49 -40 51 -40 3 0 -9 19 -27 43 -18 23 -37 48 -42 55 -7 9 -3 12
12 12 12 0 41 -18 65 -40 53 -49 67 -51 32 -5 -33 43 -15 47 44 10 50 -32 57
-31 30 2 -24 31 -11 47 27 32 33 -12 37 -11 23 6 -18 21 6 51 27 34 17 -15 29
-4 15 14 -6 7 -7 18 -3 26 11 17 41 2 70 -35 13 -16 21 -21 21 -12 0 8 -16 29
-35 48 -38 37 -37 53 3 44 26 -7 27 -6 10 13 -10 11 -18 27 -18 36 0 28 29 19
64 -19z m-1364 -48 c0 -15 -18 -31 -26 -23 -7 7 7 37 17 37 5 0 9 -6 9 -14z
m-756 -169 c16 -12 14 -14 -23 -26 -23 -6 -41 -16 -41 -21 0 -10 53 -3 85 12
20 9 20 9 1 -6 -11 -9 -23 -16 -28 -16 -4 0 -8 -5 -8 -11 0 -6 7 -8 16 -5 37
14 64 18 64 8 0 -5 -13 -15 -30 -21 -16 -5 -30 -14 -30 -20 0 -6 19 -3 45 5
25 9 50 14 57 11 13 -4 -21 -22 -91 -48 -62 -23 -10 -22 58 2 42 14 75 20 87
15 14 -6 -5 -16 -81 -43 -95 -33 -135 -53 -106 -53 18 0 158 36 207 54 23 8
47 11 54 6 9 -5 -21 -19 -86 -39 -109 -34 -143 -51 -108 -51 12 0 37 6 55 14
19 7 58 16 87 20 30 4 71 14 93 22 21 9 44 14 51 12 16 -6 -107 -48 -138 -48
-22 0 -41 -16 -31 -27 3 -2 40 4 81 15 42 11 76 16 76 12 0 -4 -43 -21 -95
-39 -52 -18 -95 -37 -95 -42 0 -12 -4 -12 76 14 82 28 134 39 134 29 0 -12
-33 -28 -93 -46 -31 -9 -57 -21 -57 -26 0 -14 17 -12 88 9 34 11 62 16 62 12
0 -8 -45 -31 -60 -31 -5 0 -21 -5 -36 -10 -19 -8 -24 -14 -17 -21 8 -8 20 -6
41 5 35 18 62 21 62 7 0 -5 -21 -17 -47 -27 -55 -20 -88 -44 -61 -44 8 0 32 7
53 16 20 8 39 13 42 10 3 -2 0 -28 -6 -56 -6 -28 -11 -68 -11 -88 l0 -37 -95
-43 c-138 -62 -205 -84 -241 -77 -55 10 -67 32 -115 208 -31 115 -62 185 -104
235 -20 25 -26 42 -27 93 -1 55 1 64 25 84 14 13 50 31 79 41 29 9 76 28 103
41 59 27 56 27 79 10z m927 -78 c-6 -16 -10 -18 -10 -7 -1 22 12 55 16 42 2
-6 -1 -22 -6 -35z m49 -76 c-11 -21 -19 -31 -16 -23 3 8 11 35 18 60 9 32 14
39 16 23 2 -12 -6 -39 -18 -60z m-41 28 c-6 -18 -14 -30 -17 -27 -2 3 1 19 8
36 16 40 23 33 9 -9z m92 6 c-10 -9 -11 -8 -5 6 3 10 9 15 12 12 3 -3 0 -11
-7 -18z m25 -49 c-14 -31 -46 -88 -71 -128 -43 -67 -51 -91 -26 -76 6 4 30 39
53 79 56 95 98 153 98 136 0 -16 -83 -163 -108 -192 -16 -18 -11 -34 7 -22 6
3 36 49 67 101 31 53 58 93 61 90 11 -11 -21 -79 -63 -135 -45 -61 -51 -71
-35 -71 5 0 35 38 66 85 32 47 59 85 61 85 3 0 -7 -23 -21 -51 -37 -72 -26
-81 18 -15 43 65 56 73 27 17 -29 -59 -7 -59 29 -1 34 56 47 63 36 23 -7 -29
-104 -163 -117 -163 -13 0 -9 12 18 47 34 44 19 42 -31 -5 -39 -38 -97 -62
-148 -62 -38 0 -77 -38 -144 -142 -63 -96 -82 -138 -64 -138 6 0 11 5 11 11 0
5 5 7 11 3 6 -3 10 1 9 12 -5 41 -1 49 15 28 15 -18 16 -18 14 11 -2 45 1 52
12 33 16 -27 30 -22 19 7 -10 27 -3 58 11 49 5 -3 9 -14 9 -24 0 -10 5 -22 10
-25 8 -5 9 10 4 44 -5 36 -3 51 5 51 6 0 14 -13 17 -30 4 -16 10 -30 15 -30 5
0 9 -9 9 -19 0 -11 5 -23 10 -26 15 -9 12 22 -4 48 -8 12 -17 38 -20 57 -6 36
-5 36 41 52 27 9 63 20 82 23 39 8 141 -3 141 -15 0 -7 -88 -16 -187 -20 -36
-1 -46 -33 -34 -104 6 -35 11 -71 11 -81 0 -18 -1 -18 -15 1 -14 17 -15 14 -9
-36 5 -43 4 -53 -6 -43 -7 6 -16 26 -20 45 -8 29 -9 27 -8 -19 1 -29 -1 -56
-5 -59 -4 -4 -7 2 -7 14 0 11 -4 24 -10 27 -6 4 -10 -8 -10 -29 0 -25 -4 -36
-15 -36 -9 0 -15 9 -15 25 0 14 -5 25 -11 25 -7 0 -9 -11 -6 -30 7 -33 -7 -50
-18 -22 -6 15 -8 15 -15 -4 -7 -18 -22 -24 -92 -34 -46 -6 -130 -10 -188 -8
l-105 3 -44 98 c-54 122 -59 177 -36 350 9 70 15 133 12 141 -7 19 18 53 53
71 l29 15 21 -66 c11 -36 25 -96 31 -132 9 -62 8 -86 -7 -165 -6 -28 -6 -28
23 -14 15 8 60 17 98 21 58 6 75 12 100 35 17 16 53 36 82 45 34 11 63 30 84
53 22 26 33 32 39 23 10 -17 56 45 118 162 26 47 48 85 50 84 1 -2 -9 -28 -22
-58z m-70 -49 c-20 -41 -45 -85 -56 -99 -12 -14 2 22 30 79 28 57 53 101 56
98 3 -3 -11 -38 -30 -78z m1772 -3 c5 -23 -6 -20 -67 17 -29 17 -62 37 -72 43
-11 6 -16 13 -13 16 10 10 149 -60 152 -76z m-1819 35 c-6 -18 -14 -30 -17
-27 -2 3 1 19 8 36 16 40 23 33 9 -9z m637 -26 c14 -25 30 -45 35 -45 14 0 11
12 -11 48 -11 17 -16 32 -11 32 13 0 87 -84 107 -121 9 -19 19 -29 21 -22 3 7
-9 32 -25 55 -44 66 -45 68 -25 68 10 0 34 -21 53 -47 19 -25 36 -40 38 -34 2
7 -2 20 -10 29 -25 29 -30 42 -15 42 7 0 19 -11 25 -25 14 -30 36 -34 27 -5
-20 63 99 -42 143 -125 19 -37 11 -40 -36 -16 -41 21 -58 17 -41 -9 5 -8 9
-30 9 -49 0 -23 7 -39 23 -52 13 -10 32 -38 41 -63 17 -43 16 -46 -3 -84 -11
-22 -33 -51 -49 -64 -15 -12 -41 -53 -56 -90 -28 -68 -88 -148 -110 -148 -8 0
-44 25 -82 55 -89 72 -170 111 -269 131 -44 9 -92 22 -106 30 -40 20 -112 111
-105 131 6 15 10 13 31 -12 28 -35 32 -28 10 18 -16 32 -16 32 20 -7 45 -50
54 -42 14 13 -38 52 -30 68 11 20 33 -39 40 -29 10 16 -30 45 -25 64 8 32 37
-36 46 -34 27 4 -22 42 -12 48 16 10 31 -42 46 -39 20 4 -30 52 -7 52 30 0 41
-58 50 -50 15 14 -30 56 -21 76 13 30 30 -41 39 -29 13 16 -12 19 -18 35 -13
35 7 0 79 -93 150 -196 20 -29 36 -44 39 -36 2 8 -7 26 -20 40 -46 50 -148
213 -148 235 1 7 21 -10 45 -38 25 -27 45 -47 45 -43 0 3 -16 32 -35 64 -43
72 -46 101 -5 54 35 -41 38 -34 9 21 -34 68 -16 65 30 -4 42 -65 71 -98 71
-81 0 5 -14 29 -30 54 -28 42 -70 125 -70 139 0 3 16 -18 35 -46 56 -83 71
-84 30 -3 -14 27 -25 52 -25 55 0 7 85 -105 125 -165 16 -25 31 -47 32 -49 2
-2 6 -1 10 2 3 4 -1 15 -9 24 -8 10 -32 50 -53 88 -21 39 -49 85 -63 104 -23
31 -23 32 -4 22 12 -6 33 -32 48 -56z m-157 5 c-18 -79 -117 -230 -151 -230
-23 0 -24 -5 25 83 45 79 59 89 22 16 -15 -28 -24 -56 -22 -62 5 -16 87 147
87 173 0 11 5 20 10 20 6 0 16 11 22 25 16 36 18 27 7 -25z m1281 -38 c35 -36
40 -44 23 -40 -32 8 -36 -5 -12 -36 28 -35 19 -33 -31 9 -24 20 -45 33 -49 30
-3 -4 3 -11 14 -17 11 -6 34 -26 52 -45 17 -18 36 -33 41 -33 10 0 25 -30 19
-37 -2 -2 -15 6 -30 17 -52 41 -50 18 3 -32 30 -28 47 -45 37 -38 -31 22 -32
1 -1 -33 94 -102 97 -117 8 -36 -31 28 -59 48 -62 44 -7 -6 49 -60 124 -121
22 -18 36 -35 32 -39 -7 -8 -98 43 -98 55 0 4 -7 10 -15 14 -29 11 -14 -10 34
-49 52 -40 62 -71 11 -34 -15 12 -34 19 -42 17 -8 -3 1 -14 24 -28 38 -22 45
-50 8 -30 -29 15 -35 12 -16 -9 34 -38 6 -43 -34 -7 -21 19 -54 42 -72 51
l-33 16 28 -23 c78 -65 107 -91 107 -99 0 -22 -34 -2 -155 94 -132 105 -280
238 -217 197 51 -34 48 -17 -4 29 -69 61 -30 50 70 -20 47 -33 91 -59 97 -57
6 2 -7 16 -29 32 -22 15 -48 36 -57 46 -17 18 -16 18 18 1 42 -22 122 -81 188
-140 52 -46 80 -50 38 -5 -24 27 -162 134 -172 134 -3 0 -19 14 -37 30 -45 42
-27 37 34 -9 76 -58 166 -115 171 -109 3 3 -30 36 -72 73 -124 109 -150 141
-48 59 45 -36 105 -69 104 -57 0 5 -28 31 -62 60 -105 88 -114 96 -65 62 63
-43 75 -28 18 22 -29 25 -39 39 -28 39 9 0 30 -11 46 -25 30 -25 52 -32 52
-17 0 5 -10 14 -23 21 -13 7 -36 29 -52 49 -20 26 -22 31 -7 18 12 -11 25 -16
30 -12 4 4 -6 18 -22 31 -16 12 -27 28 -25 34 2 6 27 -9 56 -34 64 -56 93 -59
35 -4 -23 23 -42 45 -42 51 0 16 43 -13 90 -60z m-1399 15 c-16 -40 -117 -188
-124 -181 -4 4 18 42 48 84 30 43 59 90 65 105 6 15 13 26 16 23 2 -3 0 -17
-5 -31z m634 -30 c31 -51 80 -117 165 -225 66 -84 66 -99 -2 -96 -32 1 -62 -4
-76 -13 -21 -13 -26 -12 -47 1 -13 9 -30 34 -36 56 -7 21 -23 49 -35 61 -30
28 -34 85 -6 74 57 -24 72 -28 77 -23 11 11 -33 82 -89 145 -46 50 -53 62 -39
66 40 11 59 1 88 -46z m-1003 3 c-9 -22 -18 -33 -20 -25 -3 12 25 65 33 65 2
0 -4 -18 -13 -40z m392 -2 c-35 -69 -100 -167 -110 -168 -7 0 11 35 40 78 28
43 57 88 64 100 19 34 24 26 6 -10z m1476 -21 c0 -28 12 -68 35 -115 36 -75
70 -180 62 -188 -6 -6 -77 76 -77 90 0 6 -18 51 -40 100 -34 77 -37 90 -25
103 8 8 18 25 21 39 9 36 24 18 24 -29z m-405 -319 c161 -136 207 -174 233
-187 29 -15 28 -31 -2 -31 -17 0 -73 44 -188 148 -90 81 -216 189 -281 240
-64 52 -117 95 -117 98 0 9 257 -184 355 -268z m-52 103 c25 -20 114 -92 198
-160 84 -68 159 -125 166 -128 18 -7 16 -23 -2 -23 -26 0 -93 48 -175 124 -42
40 -125 112 -184 160 -58 48 -106 90 -106 92 0 8 55 -27 103 -65z m-1243 -1
c-30 -3 -67 -10 -82 -14 -18 -5 -28 -4 -28 2 0 14 31 19 105 19 l60 0 -55 -7z
m-15 -40 c-33 -4 -70 -10 -82 -14 -14 -4 -23 -3 -23 3 0 14 26 19 100 18 l65
0 -60 -7z m-15 -34 c-70 -26 -83 -29 -75 -16 10 16 45 29 80 29 l30 0 -35 -13z
m5 -67 c-60 -61 -70 -64 -70 -21 1 53 10 62 63 62 l46 0 -39 -41z m902 9 c14
-20 47 -127 40 -134 -3 -3 -19 18 -36 48 -36 63 -39 57 -9 -24 16 -44 18 -62
10 -70 -9 -9 -12 -8 -12 3 0 8 -7 24 -16 35 -14 18 -15 17 -10 -17 9 -52 -5
-56 -32 -7 -13 24 -20 34 -16 23 14 -38 17 -98 5 -91 -6 4 -11 14 -11 23 0 18
-14 9 -16 -10 0 -7 -2 -21 -3 -32 -1 -14 -8 -6 -22 25 -17 38 -19 51 -9 83 6
20 22 44 35 53 13 9 34 36 45 60 22 44 40 54 57 32z m-905 -217 c-7 -75 14
-59 24 17 10 85 23 108 23 45 1 -29 6 -53 11 -53 6 0 10 24 11 53 1 48 1 50
10 22 6 -17 7 -76 4 -135 -4 -69 -3 -102 3 -95 12 12 32 137 32 199 0 27 5 46
11 46 13 0 5 -156 -13 -258 -6 -35 -8 -66 -4 -69 8 -8 12 7 31 122 23 132 37
172 30 83 -7 -83 8 -90 21 -10 l10 57 9 -75 c9 -72 9 -73 16 -35 4 22 8 61 8
88 1 26 6 47 11 47 6 0 10 -22 10 -50 0 -63 14 -65 26 -2 l10 47 8 -88 c8 -84
20 -110 22 -44 0 18 1 52 3 77 3 39 4 41 11 20 4 -14 8 -42 9 -62 2 -61 21
-43 22 20 1 43 3 51 9 32 4 -14 8 -47 9 -73 1 -31 5 -46 12 -42 5 4 8 19 5 33
-3 15 -2 43 3 62 l9 35 1 -32 c1 -36 21 -56 21 -21 0 18 2 20 10 8 5 -8 10
-36 10 -62 0 -70 17 -58 25 17 4 36 11 62 16 60 4 -3 6 -12 2 -20 -8 -21 6
-105 18 -105 5 0 9 23 9 51 l0 50 34 -26 c34 -26 34 -27 29 -88 -8 -87 -15
-97 -68 -97 l-45 0 -1 43 -1 42 -9 -41 c-8 -35 -13 -41 -29 -37 -11 3 -20 0
-20 -6 0 -17 -41 -13 -56 6 -13 17 -14 17 -20 -5 -11 -40 -24 -23 -24 33 0 30
-4 55 -10 55 -6 0 -10 -27 -10 -60 0 -33 -4 -60 -10 -60 -5 0 -10 14 -10 30 0
39 -13 38 -25 -2 -6 -17 -16 -34 -24 -36 -11 -4 -13 4 -7 37 4 25 2 41 -4 41
-5 0 -10 -12 -10 -26 0 -33 -17 -64 -35 -64 -12 0 -14 9 -9 43 8 49 -6 43 -21
-11 -13 -46 -41 -59 -32 -14 4 17 2 34 -3 37 -6 3 -10 -3 -10 -15 0 -38 -19
-60 -52 -60 -31 0 -31 0 -25 45 9 59 -9 59 -24 0 -14 -55 -39 -62 -32 -9 3 25
2 34 -6 29 -6 -3 -11 -12 -10 -18 3 -18 -12 -47 -23 -47 -7 0 -8 21 -4 58 7
62 -7 54 -18 -10 -7 -36 -19 -48 -30 -30 -3 5 1 33 9 63 8 30 15 67 15 82 0
39 -20 24 -21 -16 -1 -42 -33 -134 -42 -120 -4 6 0 31 7 57 18 60 4 69 -19 11
-19 -50 -40 -72 -29 -31 7 30 -9 35 -25 9 -8 -14 -10 -7 -6 27 l5 45 -16 -37
c-9 -21 -23 -38 -31 -38 -11 0 -11 4 -3 21 6 11 9 25 7 32 -2 7 -11 -1 -20
-18 -21 -39 -22 -13 -2 70 8 33 15 81 15 108 0 35 4 47 15 47 13 0 15 -11 10
-67 -4 -38 -9 -79 -11 -93 -8 -37 12 -12 24 30 l10 35 1 -40 c1 -35 3 -37 13
-21 6 11 17 56 23 100 12 74 13 76 14 31 0 -27 -6 -79 -14 -114 -9 -38 -12
-68 -7 -73 11 -11 29 54 48 172 l13 85 -5 -85 c-3 -47 -7 -95 -11 -107 -3 -13
-1 -23 4 -23 5 0 19 45 32 100 13 55 25 100 27 100 5 0 -4 -87 -12 -128 -3
-14 -1 -21 5 -18 9 6 36 116 44 181 3 20 5 14 6 -17 2 -76 31 -56 31 21 0 21
3 41 8 45 11 12 20 -64 14 -123z m-221 -41 c-5 -25 -9 -35 -10 -24 -1 28 11
92 16 79 1 -6 -1 -30 -6 -55z m987 12 c2 -18 -1 -32 -7 -32 -6 0 -11 9 -11 20
0 11 -4 20 -10 20 -5 0 -7 7 -3 15 9 25 28 11 31 -23z m-28 -25 c0 -17 -10
-28 -35 -40 -50 -24 -63 -21 -29 5 16 13 34 22 40 20 8 -1 10 5 7 18 -3 11 0
20 6 20 6 0 11 -10 11 -23z"/>
<path d="M2085 3269 c-10 -15 3 -25 16 -12 7 7 7 13 1 17 -6 3 -14 1 -17 -5z"/>
<path d="M2135 3259 c-9 -28 1 -36 14 -10 7 12 7 22 2 26 -5 3 -13 -4 -16 -16z"/>
<path d="M2171 3242 c-14 -26 -7 -42 10 -25 6 6 9 19 7 29 -3 17 -5 17 -17 -4z"/>
<path d="M2588 3194 c-5 -4 -8 -16 -8 -28 0 -14 3 -17 11 -9 6 6 9 19 7 28 -1
9 -6 13 -10 9z"/>
<path d="M2240 3169 c0 -11 5 -17 10 -14 6 3 10 13 10 21 0 8 -4 14 -10 14 -5
0 -10 -9 -10 -21z"/>
<path d="M2297 3184 c-4 -4 -7 -14 -7 -23 0 -11 3 -12 11 -4 6 6 10 16 7 23
-2 6 -7 8 -11 4z"/>
<path d="M2390 3134 c-14 -67 -6 -84 10 -23 6 24 13 52 16 62 3 9 1 17 -5 17
-5 0 -15 -25 -21 -56z"/>
<path d="M2336 3129 c-16 -49 -14 -78 3 -50 10 16 24 92 18 98 -3 2 -12 -19
-21 -48z"/>
<path d="M2440 3164 c0 -8 5 -12 10 -9 6 3 10 10 10 16 0 5 -4 9 -10 9 -5 0
-10 -7 -10 -16z"/>
<path d="M2478 3145 c-11 -20 -31 -106 -25 -111 7 -7 40 93 35 108 -3 7 -7 8
-10 3z"/>
<path d="M2427 3133 c-10 -9 -8 -33 2 -33 5 0 11 9 14 20 5 20 -3 26 -16 13z"/>
<path d="M2528 3124 c-5 -4 -8 -19 -8 -33 1 -23 2 -24 11 -8 11 19 9 53 -3 41z"/>
<path d="M2605 3067 c-4 -10 -5 -21 -1 -24 10 -10 18 4 13 24 -4 17 -4 17 -12
0z"/>
<path d="M2403 3030 c-18 -43 -25 -70 -19 -70 9 0 37 73 32 84 -2 6 -8 0 -13
-14z"/>
<path d="M2820 2951 c0 -10 -7 -37 -15 -60 -8 -22 -10 -41 -6 -41 5 0 11 6 14
14 9 24 19 106 13 106 -3 0 -6 -8 -6 -19z"/>
<path d="M2766 2777 c-22 -77 -15 -99 8 -25 10 31 16 62 14 70 -3 7 -13 -13
-22 -45z"/>
<path d="M2731 2802 c-7 -13 -11 -26 -8 -28 8 -8 29 25 25 38 -3 8 -9 4 -17
-10z"/>
<path d="M2800 2735 c-12 -27 -20 -58 -18 -69 2 -14 11 1 26 42 28 76 21 96
-8 27z"/>
<path d="M2697 2724 c-4 -4 -7 -17 -7 -28 1 -19 1 -20 11 -3 11 19 8 43 -4 31z"/>
<path d="M2822 2637 c-23 -54 -29 -89 -13 -71 11 12 44 114 39 120 -3 2 -14
-20 -26 -49z"/>
<path d="M1886 3125 c-4 -11 -18 -44 -32 -73 -27 -58 -28 -62 -15 -62 13 0 63
118 58 138 -3 15 -5 15 -11 -3z"/>
<path d="M1405 3098 c-4 -18 -9 -41 -11 -50 -3 -10 -1 -18 4 -18 11 0 32 89
21 95 -4 3 -10 -9 -14 -27z"/>
<path d="M1500 3083 c-1 -25 -12 -61 -35 -115 -4 -11 -3 -18 3 -18 13 0 52
102 52 135 0 14 -4 25 -10 25 -5 0 -10 -12 -10 -27z"/>
<path d="M1590 3063 c0 -28 3 -34 10 -23 13 20 13 47 0 55 -6 4 -10 -9 -10
-32z"/>
<path d="M958 3070 c-3 -8 -13 -44 -21 -80 -8 -36 -19 -74 -23 -84 -5 -13 -4
-17 4 -12 16 9 54 142 49 169 -2 16 -5 18 -9 7z"/>
<path d="M1974 3045 c-22 -53 -11 -67 14 -18 14 26 18 44 12 48 -6 4 -17 -10
-26 -30z"/>
<path d="M987 3063 c-11 -10 -8 -43 3 -43 6 0 10 11 10 25 0 26 -2 29 -13 18z"/>
<path d="M1776 3048 c-18 -25 -21 -48 -7 -48 10 0 36 58 28 66 -3 3 -12 -5
-21 -18z"/>
<path d="M1897 3007 c-18 -41 -22 -56 -11 -45 22 21 55 96 45 102 -4 3 -19
-23 -34 -57z"/>
<path d="M1451 3036 c-6 -16 -14 -33 -17 -37 -3 -5 -1 -9 5 -9 15 0 33 38 28
58 -3 13 -7 10 -16 -12z"/>
<path d="M1537 3025 c-3 -19 -15 -47 -26 -62 -22 -27 -27 -43 -13 -43 10 0 62
102 62 123 0 31 -17 18 -23 -18z"/>
<path d="M1348 3044 c-5 -4 -8 -14 -8 -23 0 -9 -7 -28 -14 -43 -8 -15 -11 -30
-7 -33 11 -6 44 68 39 90 -1 9 -6 13 -10 9z"/>
<path d="M901 3009 c0 -15 -3 -42 -6 -60 l-5 -34 11 34 c5 18 8 45 6 60 l-4
26 -2 -26z"/>
<path d="M1616 3015 c-3 -9 -6 -25 -6 -36 0 -11 -9 -38 -21 -60 -22 -45 -19
-65 4 -27 25 38 49 120 39 130 -6 6 -12 3 -16 -7z"/>
<path d="M2000 2983 c-11 -25 -18 -48 -16 -50 6 -6 56 69 56 84 0 28 -20 11
-40 -34z"/>
<path d="M1572 2976 c-25 -55 -25 -56 -14 -56 13 0 45 76 40 92 -3 7 -14 -9
-26 -36z"/>
<path d="M1371 2991 c-7 -12 -7 -22 -2 -26 5 -3 13 4 16 16 9 28 -1 36 -14 10z"/>
<path d="M846 2984 c-3 -9 -6 -25 -6 -37 0 -27 16 -11 25 26 8 29 -8 39 -19
11z"/>
<path d="M966 2965 c-3 -8 -1 -15 3 -15 5 0 11 7 15 15 3 8 1 15 -3 15 -5 0
-11 -7 -15 -15z"/>
<path d="M1007 2953 c-3 -15 -8 -38 -12 -50 -4 -14 -3 -23 3 -23 5 0 13 21 17
46 7 50 1 73 -8 27z"/>
<path d="M1406 2948 c-18 -25 -20 -38 -8 -38 10 0 35 50 28 57 -2 2 -11 -6
-20 -19z"/>
<path d="M1637 2948 c-6 -21 -2 -36 7 -27 10 11 16 49 8 49 -5 0 -12 -10 -15
-22z"/>
<path d="M1926 2946 c-18 -28 -20 -36 -8 -36 10 0 35 50 29 57 -2 2 -12 -8
-21 -21z"/>
<path d="M1800 2939 c-6 -11 -9 -25 -7 -32 2 -7 11 3 21 21 9 17 12 32 7 32
-6 0 -15 -9 -21 -21z"/>
<path d="M2030 2921 c-5 -11 -10 -25 -10 -32 0 -18 27 7 33 31 7 26 -9 26 -23
1z"/>
<path d="M834 2904 c-4 -10 -9 -22 -11 -26 -2 -5 0 -8 6 -8 11 0 26 39 17 47
-3 3 -9 -3 -12 -13z"/>
<path d="M881 2874 c0 -11 3 -14 6 -6 3 7 2 16 -1 19 -3 4 -6 -2 -5 -13z"/>
<path d="M1512 2859 c-7 -12 -11 -23 -8 -26 8 -9 36 17 36 33 0 20 -13 17 -28
-7z"/>
<path d="M1620 2849 c-26 -36 -17 -54 11 -20 17 21 26 51 15 51 -3 0 -14 -14
-26 -31z"/>
<path d="M1487 2763 c-12 -12 -7 -22 8 -17 8 4 15 10 15 15 0 11 -14 12 -23 2z"/>
<path d="M480 2800 c0 -5 9 -14 20 -20 22 -12 27 -1 8 18 -14 14 -28 16 -28 2z"/>
<path d="M465 2716 c22 -19 42 -32 45 -29 6 6 -61 62 -75 63 -5 0 8 -16 30
-34z"/>
<path d="M565 2730 c3 -5 14 -10 23 -10 15 0 15 2 2 10 -20 13 -33 13 -25 0z"/>
<path d="M430 2671 c0 -11 60 -53 71 -49 6 2 -8 15 -30 30 -23 15 -41 23 -41
19z"/>
<path d="M245 2650 c3 -5 11 -10 16 -10 6 0 7 5 4 10 -3 6 -11 10 -16 10 -6 0
-7 -4 -4 -10z"/>
<path d="M550 2655 c0 -2 10 -10 23 -16 20 -11 21 -11 8 4 -13 16 -31 23 -31
12z"/>
<path d="M424 2605 c22 -19 41 -33 44 -31 6 6 -61 65 -73 65 -5 0 8 -15 29
-34z"/>
<path d="M628 2598 c12 -12 25 -18 29 -14 4 4 -1 14 -11 22 -31 22 -43 17 -18
-8z"/>
<path d="M400 2560 c68 -63 110 -94 110 -82 0 11 -135 125 -153 130 -7 2 13
-20 43 -48z"/>
<path d="M240 2585 c7 -9 15 -13 17 -11 7 7 -7 26 -19 26 -6 0 -6 -6 2 -15z"/>
<path d="M300 2594 c0 -11 52 -64 62 -64 18 0 6 19 -27 44 -19 15 -35 24 -35
20z"/>
<path d="M570 2560 c45 -39 70 -54 70 -41 0 10 -83 71 -96 71 -5 0 7 -14 26
-30z"/>
<path d="M250 2506 c24 -25 48 -46 52 -46 18 0 4 17 -45 54 l-52 39 45 -47z"/>
<path d="M280 2542 c0 -11 103 -93 109 -86 4 4 -69 71 -96 87 -7 4 -13 4 -13
-1z"/>
<path d="M529 2509 c13 -11 27 -17 30 -13 7 7 -28 34 -43 34 -6 -1 0 -10 13
-21z"/>
<path d="M598 2459 c18 -18 36 -29 39 -25 8 7 -45 55 -61 56 -6 0 5 -14 22
-31z"/>
<path d="M465 2440 c21 -22 41 -37 44 -35 6 7 -60 75 -73 75 -6 0 7 -18 29
-40z"/>
<path d="M530 2452 c0 -5 7 -13 16 -16 10 -4 14 -1 12 6 -5 15 -28 23 -28 10z"/>
<path d="M150 2441 c0 -12 59 -55 66 -48 2 2 -11 16 -31 31 -19 15 -35 23 -35
17z"/>
<path d="M250 2416 c39 -42 75 -66 68 -46 -2 7 -26 28 -53 48 l-50 36 35 -38z"/>
<path d="M452 2396 c21 -20 43 -36 49 -36 18 0 -14 32 -53 53 l-33 19 37 -36z"/>
<path d="M600 2400 c0 -6 7 -10 15 -10 8 0 15 2 15 4 0 2 -7 6 -15 10 -8 3
-15 1 -15 -4z"/>
<path d="M373 2383 c9 -9 20 -13 24 -9 4 4 1 11 -7 16 -25 16 -35 11 -17 -7z"/>
<path d="M445 2320 c18 -19 31 -26 34 -19 2 7 -7 20 -20 30 -38 29 -46 22 -14
-11z"/>
<path d="M190 2333 c0 -13 29 -38 35 -31 3 3 -4 13 -15 23 -11 10 -20 13 -20
8z"/>
<path d="M260 2332 c0 -4 10 -13 23 -21 22 -14 22 -14 3 8 -20 22 -26 25 -26
13z"/>
<path d="M350 2333 c0 -14 59 -67 66 -60 3 3 3 10 0 16 -10 16 -66 53 -66 44z"/>
<path d="M130 2314 c0 -8 32 -33 43 -34 5 0 5 4 2 10 -8 13 -45 33 -45 24z"/>
<path d="M315 2280 c3 -5 11 -10 16 -10 6 0 7 5 4 10 -3 6 -11 10 -16 10 -6 0
-7 -4 -4 -10z"/>
<path d="M2204 2646 c-20 -20 -34 -40 -30 -43 4 -4 23 10 43 30 21 20 34 39
30 43 -3 4 -23 -10 -43 -30z"/>
<path d="M2355 2630 c-10 -11 -14 -20 -9 -20 12 1 44 25 44 34 0 12 -17 6 -35
-14z"/>
<path d="M2456 2588 c-20 -23 -36 -49 -35 -57 0 -13 3 -12 12 3 7 11 27 37 46
58 18 21 29 38 23 38 -6 0 -27 -19 -46 -42z"/>
<path d="M2270 2560 c-8 -5 -12 -11 -9 -14 3 -3 14 1 25 9 21 16 8 20 -16 5z"/>
<path d="M2447 2482 c-19 -21 -22 -32 -7 -32 10 0 34 39 27 46 -2 2 -11 -4
-20 -14z"/>
<path d="M2498 2453 c-23 -28 -30 -43 -19 -43 12 0 46 48 39 55 -3 3 -12 -3
-20 -12z"/>
<path d="M2472 2329 c-24 -34 -41 -63 -39 -65 6 -7 88 107 85 118 -2 5 -23
-19 -46 -53z"/>
<path d="M2560 2371 c-16 -30 -12 -36 10 -16 21 19 26 35 10 35 -5 0 -14 -9
-20 -19z"/>
<path d="M2515 2310 c-10 -11 -13 -20 -7 -20 6 0 16 9 22 20 6 11 9 20 7 20
-2 0 -12 -9 -22 -20z"/>
<path d="M2607 2253 c-10 -9 -9 -23 2 -23 5 0 11 7 15 15 5 15 -5 20 -17 8z"/>
<path d="M2705 2207 c-10 -15 -16 -30 -13 -32 8 -9 40 33 36 47 -3 8 -11 2
-23 -15z"/>
<path d="M2627 2203 c-4 -3 -7 -11 -7 -17 0 -6 5 -5 12 2 6 6 9 14 7 17 -3 3
-9 2 -12 -2z"/>
<path d="M2557 2193 c-4 -3 -7 -11 -7 -17 0 -6 5 -5 12 2 6 6 9 14 7 17 -3 3
-9 2 -12 -2z"/>
<path d="M2778 2158 c-8 -13 -21 -34 -28 -48 -12 -24 -12 -24 6 -8 25 22 58
78 46 78 -5 0 -16 -10 -24 -22z"/>
<path d="M2585 2150 c-10 -11 -13 -20 -7 -20 6 0 16 9 22 20 6 11 9 20 7 20
-2 0 -12 -9 -22 -20z"/>
<path d="M2695 2120 c-10 -11 -16 -23 -13 -26 7 -6 38 24 38 37 0 13 -5 11
-25 -11z"/>
<path d="M2640 2105 c-8 -9 -8 -15 -2 -15 12 0 26 19 19 26 -2 2 -10 -2 -17
-11z"/>
<path d="M2754 2045 c-9 -22 1 -29 15 -11 8 10 9 16 1 21 -5 3 -13 -1 -16 -10z"/>
<path d="M2692 1950 c-7 -11 -8 -20 -2 -20 5 0 14 9 20 20 6 11 7 20 3 20 -5
0 -14 -9 -21 -20z"/>
<path d="M2746 1821 c-9 -16 -23 -32 -32 -35 -13 -5 -15 -9 -6 -18 14 -14 19
-9 51 45 13 20 18 37 12 37 -6 0 -17 -13 -25 -29z"/>
<path d="M1790 2694 c0 -21 4 -33 10 -29 6 3 10 19 10 36 0 16 -4 29 -10 29
-5 0 -10 -16 -10 -36z"/>
<path d="M1660 2655 c0 -14 5 -25 10 -25 6 0 10 11 10 25 0 14 -4 25 -10 25
-5 0 -10 -11 -10 -25z"/>
<path d="M1718 2662 c-3 -11 -2 -25 2 -32 5 -8 9 -5 12 8 3 11 2 25 -2 32 -5
8 -9 5 -12 -8z"/>
<path d="M1831 2628 c0 -39 3 -48 9 -33 12 28 12 73 0 80 -6 4 -10 -14 -9 -47z"/>
<path d="M1610 2635 c0 -8 5 -15 10 -15 6 0 10 7 10 15 0 8 -4 15 -10 15 -5 0
-10 -7 -10 -15z"/>
<path d="M1888 2640 c-4 -8 -9 -32 -11 -52 -6 -42 9 -62 18 -25 8 31 1 98 -7
77z"/>
<path d="M1554 2619 c-3 -6 -1 -16 5 -22 8 -8 11 -5 11 11 0 24 -5 28 -16 11z"/>
<path d="M1776 2604 c-4 -15 -2 -32 3 -37 8 -8 11 0 11 26 0 44 -5 47 -14 11z"/>
<path d="M1500 2600 c0 -11 5 -20 10 -20 6 0 10 9 10 20 0 11 -4 20 -10 20 -5
0 -10 -9 -10 -20z"/>
<path d="M1657 2565 c-4 -8 -2 -17 3 -20 6 -4 10 3 10 14 0 25 -6 27 -13 6z"/>
<path d="M1704 2554 c-4 -14 -2 -30 5 -37 8 -8 11 -1 11 26 0 43 -7 48 -16 11z"/>
<path d="M1381 2554 c0 -11 3 -14 6 -6 3 7 2 16 -1 19 -3 4 -6 -2 -5 -13z"/>
<path d="M1980 2555 c0 -8 5 -15 10 -15 6 0 10 7 10 15 0 8 -4 15 -10 15 -5 0
-10 -7 -10 -15z"/>
<path d="M1152 2548 c3 -7 13 -15 24 -17 16 -3 17 -1 5 13 -16 19 -34 21 -29
4z"/>
<path d="M1050 2505 c7 -8 20 -15 29 -15 13 1 13 3 -3 15 -26 19 -42 19 -26 0z"/>
<path d="M730 2425 c0 -12 56 -54 70 -54 9 0 1 12 -20 29 -32 28 -50 37 -50
25z"/>
<path d="M960 2400 c0 -5 7 -10 16 -10 8 0 12 5 9 10 -3 6 -10 10 -16 10 -5 0
-9 -4 -9 -10z"/>
<path d="M1000 2380 c0 -5 7 -10 16 -10 8 0 12 5 9 10 -3 6 -10 10 -16 10 -5
0 -9 -4 -9 -10z"/>
<path d="M770 2301 c0 -5 5 -13 10 -16 6 -3 10 -2 10 4 0 5 -4 13 -10 16 -5 3
-10 2 -10 -4z"/>
<path d="M2135 2220 c-3 -5 1 -10 9 -10 8 0 18 5 21 10 3 6 -1 10 -9 10 -8 0
-18 -4 -21 -10z"/>
<path d="M1750 2204 c0 -14 3 -14 15 -4 8 7 15 14 15 16 0 2 -7 4 -15 4 -8 0
-15 -7 -15 -16z"/>
<path d="M1790 2185 c-8 -9 -8 -15 -2 -15 12 0 26 19 19 26 -2 2 -10 -2 -17
-11z"/>
<path d="M970 2181 c0 -11 31 -24 39 -16 3 3 -1 10 -9 15 -19 12 -30 12 -30 1z"/>
<path d="M1930 2155 c-7 -9 -11 -18 -8 -20 9 -10 38 7 38 21 0 18 -14 18 -30
-1z"/>
<path d="M940 2150 c0 -12 28 -25 36 -17 3 3 -4 10 -15 17 -15 7 -21 7 -21 0z"/>
<path d="M1960 2120 c-8 -5 -11 -12 -7 -16 4 -4 13 -2 19 4 15 15 7 24 -12 12z"/>
<path d="M936 2112 c-3 -6 1 -13 10 -16 23 -9 28 -2 10 13 -8 7 -17 8 -20 3z"/>
<path d="M1561 2084 c0 -11 3 -14 6 -6 3 7 2 16 -1 19 -3 4 -6 -2 -5 -13z"/>
<path d="M1352 2061 c-18 -20 -23 -34 -19 -61 6 -44 24 -136 43 -217 8 -34 14
-75 14 -92 0 -38 10 -43 84 -47 65 -3 61 10 -6 21 -34 6 -38 10 -38 37 0 47
-37 189 -66 251 -20 45 -23 60 -14 77 14 27 26 25 85 -10 38 -23 45 -30 28
-30 -13 0 -23 -6 -23 -14 0 -20 30 -89 36 -83 3 3 1 14 -5 25 -21 39 -14 52
27 52 20 0 56 5 80 10 33 8 50 7 78 -5 45 -18 65 -19 42 -1 -10 7 -18 24 -18
37 l-1 24 -13 -23 c-11 -20 -14 -21 -25 -8 -7 9 -10 24 -6 37 5 15 3 20 -6 17
-8 -3 -15 -14 -17 -26 -4 -29 -28 -28 -37 1 -8 21 -8 21 -12 -5 -2 -16 -11
-28 -18 -28 -14 0 -20 14 -28 70 -3 14 -5 3 -6 -25 -2 -49 -2 -49 -16 -25 -8
14 -15 36 -16 50 -1 17 -4 11 -8 -15 l-6 -40 -23 40 c-20 34 -22 36 -17 12 5
-26 4 -27 -14 -17 -11 5 -24 16 -28 24 -6 10 -13 7 -31 -13z"/>
<path d="M2305 2079 c-4 -6 -4 -13 -1 -16 8 -8 36 5 36 17 0 13 -27 13 -35 -1z"/>
<path d="M690 2075 c0 -5 80 -45 92 -45 22 0 4 21 -22 27 -17 3 -33 10 -36 14
-5 9 -34 13 -34 4z"/>
<path d="M2363 2073 c-18 -6 -16 -23 1 -23 17 0 30 16 19 23 -5 2 -14 2 -20 0z"/>
<path d="M2413 2043 c-14 -5 -18 -23 -5 -23 5 0 17 7 28 15 14 11 15 14 4 14
-8 0 -21 -3 -27 -6z"/>
<path d="M690 2026 c0 -6 67 -36 82 -36 17 0 -2 18 -24 23 -13 2 -31 8 -40 12
-10 4 -18 4 -18 1z"/>
<path d="M700 1980 c0 -6 7 -10 15 -10 8 0 15 2 15 4 0 2 -7 6 -15 10 -8 3
-15 1 -15 -4z"/>
<path d="M2385 1980 c-3 -5 3 -10 14 -10 12 0 21 5 21 10 0 6 -6 10 -14 10 -8
0 -18 -4 -21 -10z"/>
<path d="M2325 1950 c-3 -5 -2 -10 4 -10 5 0 13 5 16 10 3 6 2 10 -4 10 -5 0
-13 -4 -16 -10z"/>
<path d="M1590 1935 c-56 -8 -74 -15 -72 -26 17 -69 48 -169 54 -169 4 0 8 32
10 72 l3 72 60 24 c33 13 78 27 100 32 38 7 36 8 -20 7 -33 0 -94 -5 -135 -12z"/>
<path d="M2010 1939 c0 -5 5 -7 10 -4 6 3 10 8 10 11 0 2 -4 4 -10 4 -5 0 -10
-5 -10 -11z"/>
<path d="M2375 1920 c-3 -5 3 -10 14 -10 12 0 21 5 21 10 0 6 -6 10 -14 10 -8
0 -18 -4 -21 -10z"/>
<path d="M2421 1881 c-9 -6 -10 -11 -2 -15 13 -8 31 1 31 15 0 11 -11 11 -29
0z"/>
<path d="M1612 1848 c-7 -7 -12 -38 -12 -69 0 -51 3 -60 27 -79 18 -14 29 -17
31 -10 3 7 -1 16 -8 20 -9 6 -7 11 9 19 12 7 26 9 31 6 6 -3 10 -2 10 4 0 17
-24 18 -48 3 -12 -8 -25 -12 -28 -9 -14 13 34 61 83 82 29 13 53 29 53 34 0
15 -133 14 -148 -1z m93 -8 c-3 -5 -13 -10 -21 -10 -8 0 -26 -11 -39 -25 -14
-13 -25 -19 -25 -12 0 21 14 33 50 44 19 6 36 11 38 12 2 1 0 -3 -3 -9z"/>
<path d="M2350 1850 c0 -5 4 -10 9 -10 6 0 13 5 16 10 3 6 -1 10 -9 10 -9 0
-16 -4 -16 -10z"/>
<path d="M810 1840 c0 -10 33 -30 49 -30 22 0 10 18 -19 29 -17 5 -30 6 -30 1z"/>
<path d="M2190 1839 c0 -5 5 -7 10 -4 6 3 10 8 10 11 0 2 -4 4 -10 4 -5 0 -10
-5 -10 -11z"/>
<path d="M1495 1820 c4 -14 12 -29 17 -35 7 -7 8 -2 3 15 -4 14 -12 30 -17 35
-7 7 -8 2 -3 -15z"/>
<path d="M1980 1830 c0 -5 4 -10 9 -10 6 0 13 5 16 10 3 6 -1 10 -9 10 -9 0
-16 -4 -16 -10z"/>
<path d="M1962 1803 c9 -10 17 -25 20 -33 2 -7 7 -10 10 -5 10 17 -10 55 -28
55 -15 0 -16 -2 -2 -17z"/>
<path d="M2399 1793 c-12 -15 -12 -16 4 -10 10 4 25 7 33 7 8 0 14 5 14 10 0
16 -36 11 -51 -7z"/>
<path d="M1720 1790 c0 -5 9 -10 20 -10 29 0 76 -26 84 -45 3 -9 6 -25 6 -36
0 -18 -2 -18 -22 -5 -13 7 -42 16 -64 20 -43 6 -54 -2 -54 -42 0 -10 -9 -34
-20 -55 -22 -40 -27 -87 -9 -87 6 0 9 9 6 19 -3 11 6 40 18 66 13 25 25 49 27
54 2 4 16 11 31 15 24 6 34 1 63 -31 31 -33 41 -38 95 -43 33 -3 62 -3 65 1 6
11 -23 19 -66 19 -22 0 -45 7 -54 16 -19 19 -20 26 -3 23 23 -5 96 13 107 25
8 10 1 15 -33 19 -33 5 -53 16 -84 47 -33 32 -48 40 -77 40 -20 0 -36 -4 -36
-10z"/>
<path d="M2188 1793 c6 -2 18 -2 25 0 6 3 1 5 -13 5 -14 0 -19 -2 -12 -5z"/>
<path d="M2345 1780 c-3 -5 1 -10 10 -10 9 0 13 5 10 10 -3 6 -8 10 -10 10 -2
0 -7 -4 -10 -10z"/>
<path d="M809 1760 c24 -21 51 -26 51 -12 0 10 -45 32 -63 32 -7 -1 -1 -10 12
-20z"/>
<path d="M1520 1718 c25 -24 53 -58 62 -76 18 -34 53 -43 76 -20 17 17 15 30
-6 26 -10 -1 -34 13 -54 32 -20 20 -56 46 -80 59 l-43 23 45 -44z"/>
<path d="M2168 1753 c6 -2 18 -2 25 0 6 3 1 5 -13 5 -14 0 -19 -2 -12 -5z"/>
<path d="M2405 1730 c-3 -5 3 -10 14 -10 12 0 21 5 21 10 0 6 -6 10 -14 10 -8
0 -18 -4 -21 -10z"/>
<path d="M900 1725 c0 -8 93 -46 104 -42 6 2 -11 13 -38 25 -48 22 -66 26 -66
17z"/>
<path d="M2097 1637 c-53 -51 -97 -99 -97 -107 0 -8 24 10 53 41 28 31 77 80
107 108 30 28 50 51 44 51 -6 0 -54 -42 -107 -93z"/>
<path d="M2345 1720 c-3 -5 3 -10 14 -10 12 0 21 5 21 10 0 6 -6 10 -14 10 -8
0 -18 -4 -21 -10z"/>
<path d="M820 1671 c0 -10 25 -21 48 -21 15 1 14 3 -2 15 -22 17 -46 20 -46 6z"/>
<path d="M2348 1653 c-16 -2 -28 -9 -28 -15 0 -6 9 -8 23 -3 12 4 36 6 54 6
17 -1 34 3 38 9 6 10 -31 11 -87 3z"/>
<path d="M940 1575 c13 -16 50 -21 50 -6 0 5 -10 11 -22 15 -36 9 -41 7 -28
-9z"/>
<path d="M2297 1579 c8 -8 16 -8 30 0 16 9 14 10 -11 11 -22 0 -27 -3 -19 -11z"/>
<path d="M2365 1580 c3 -5 13 -10 21 -10 8 0 14 5 14 10 0 6 -9 10 -21 10 -11
0 -17 -4 -14 -10z"/>
<path d="M955 1529 c-8 -12 17 -21 47 -17 21 3 20 4 -9 15 -20 7 -35 8 -38 2z"/>
<path d="M2340 1521 c0 -14 18 -23 31 -15 8 4 7 9 -2 15 -18 11 -29 11 -29 0z"/>
<path d="M2245 1450 c3 -5 10 -10 16 -10 5 0 9 5 9 10 0 6 -7 10 -16 10 -8 0
-12 -4 -9 -10z"/>
<path d="M2300 1450 c0 -13 28 -25 38 -16 3 4 0 11 -8 16 -20 13 -30 12 -30 0z"/>
<path d="M1992 1400 c0 -14 2 -19 5 -12 2 6 2 18 0 25 -3 6 -5 1 -5 -13z"/>
<path d="M1910 1372 c0 -22 5 -44 10 -47 7 -4 8 8 4 37 -9 57 -14 61 -14 10z"/>
<path d="M1951 1389 c-1 -42 11 -119 19 -119 9 0 0 97 -11 125 -7 18 -8 17 -8
-6z"/>
<path d="M2040 1376 c0 -22 3 -27 11 -19 8 8 8 16 0 30 -9 16 -10 14 -11 -11z"/>
<path d="M2240 1380 c0 -5 9 -10 21 -10 11 0 17 5 14 10 -3 6 -13 10 -21 10
-8 0 -14 -4 -14 -10z"/>
<path d="M1272 1340 c0 -14 2 -19 5 -12 2 6 2 18 0 25 -3 6 -5 1 -5 -13z"/>
<path d="M1875 1350 c-3 -5 -1 -10 4 -10 6 0 11 5 11 10 0 6 -2 10 -4 10 -3 0
-8 -4 -11 -10z"/>
<path d="M2001 1331 c-1 -24 2 -32 9 -25 7 7 7 19 1 35 -9 23 -10 22 -10 -10z"/>
<path d="M1210 1333 c0 -5 5 -15 10 -23 8 -12 10 -11 10 8 0 12 -4 22 -10 22
-5 0 -10 -3 -10 -7z"/>
<path d="M2168 1333 c7 -3 16 -2 19 1 4 3 -2 6 -13 5 -11 0 -14 -3 -6 -6z"/>
<path d="M1331 1305 c-1 -33 14 -103 23 -112 16 -16 15 11 -3 73 -14 48 -20
60 -20 39z"/>
<path d="M1763 1280 c0 -27 3 -50 7 -50 12 0 23 56 15 80 -11 35 -21 22 -22
-30z"/>
<path d="M1370 1301 c0 -6 5 -13 10 -16 6 -3 10 1 10 9 0 9 -4 16 -10 16 -5 0
-10 -4 -10 -9z"/>
<path d="M1920 1291 c0 -11 5 -23 10 -26 6 -3 10 3 10 14 0 11 -4 23 -10 26
-5 3 -10 -3 -10 -14z"/>
<path d="M1850 1281 c0 -12 5 -21 10 -21 6 0 10 6 10 14 0 8 -4 18 -10 21 -5
3 -10 -3 -10 -14z"/>
<path d="M1890 1278 c0 -16 5 -28 10 -28 13 0 13 20 0 40 -8 12 -10 9 -10 -12z"/>
<path d="M1180 1278 c0 -9 5 -20 10 -23 13 -8 13 5 0 25 -8 13 -10 13 -10 -2z"/>
<path d="M1228 1268 c-7 -17 8 -46 18 -35 4 4 3 17 -3 29 -7 17 -11 19 -15 6z"/>
<path d="M1430 1261 c0 -12 5 -21 10 -21 6 0 10 6 10 14 0 8 -4 18 -10 21 -5
3 -10 -3 -10 -14z"/>
<path d="M1280 1236 c0 -14 5 -26 10 -26 6 0 10 9 10 19 0 11 -4 23 -10 26 -6
4 -10 -5 -10 -19z"/>
<path d="M1470 1226 c0 -9 5 -16 10 -16 6 0 10 4 10 9 0 6 -4 13 -10 16 -5 3
-10 -1 -10 -9z"/>
<path d="M1530 1186 c0 -9 5 -16 10 -16 6 0 10 4 10 9 0 6 -4 13 -10 16 -5 3
-10 -1 -10 -9z"/>
<path d="M1656 1138 c7 -46 11 -54 19 -46 9 8 -6 88 -16 88 -5 0 -6 -19 -3
-42z"/>
<path d="M2998 2443 c7 -3 16 -2 19 1 4 3 -2 6 -13 5 -11 0 -14 -3 -6 -6z"/>
<path d="M2940 2425 c-7 -8 -8 -15 -2 -15 5 0 15 7 22 15 7 8 8 15 2 15 -5 0
-15 -7 -22 -15z"/>
<path d="M2990 2404 c-19 -7 -45 -13 -57 -13 -13 -1 -23 -6 -23 -12 0 -8 11
-9 32 -5 67 13 108 27 108 36 0 13 -16 11 -60 -6z"/>
<path d="M3068 2368 c9 -9 15 -9 24 0 9 9 7 12 -12 12 -19 0 -21 -3 -12 -12z"/>
<path d="M3005 2350 c-8 -13 15 -13 35 0 12 8 11 10 -7 10 -12 0 -25 -4 -28
-10z"/>
<path d="M3040 2310 c0 -5 9 -10 19 -10 11 0 23 5 26 10 4 6 -5 10 -19 10 -14
0 -26 -4 -26 -10z"/>
<path d="M2990 2290 c-13 -8 -13 -10 2 -10 9 0 20 5 23 10 8 13 -5 13 -25 0z"/>
<path d="M3120 2270 c0 -5 6 -10 14 -10 8 0 18 5 21 10 3 6 -3 10 -14 10 -12
0 -21 -4 -21 -10z"/>
<path d="M3058 2248 c9 -9 15 -9 24 0 9 9 7 12 -12 12 -19 0 -21 -3 -12 -12z"/>
<path d="M3105 2220 c-3 -6 5 -10 19 -10 14 0 28 5 31 10 3 6 -5 10 -19 10
-14 0 -28 -4 -31 -10z"/>
<path d="M3210 2200 c-12 -8 -10 -10 8 -10 13 0 20 4 17 10 -7 12 -6 12 -25 0z"/>
<path d="M3080 2180 c-19 -13 46 -13 75 0 16 7 11 9 -20 9 -22 0 -47 -4 -55
-9z"/>
<path d="M1125 2380 c3 -5 11 -10 16 -10 6 0 7 5 4 10 -3 6 -11 10 -16 10 -6
0 -7 -4 -4 -10z"/>
<path d="M1162 1776 c1 -10 8 -17 13 -17 15 1 12 24 -3 29 -9 3 -13 -2 -10
-12z"/>
<path d="M580 1989 c0 -5 5 -7 10 -4 6 3 10 8 10 11 0 2 -4 4 -10 4 -5 0 -10
-5 -10 -11z"/>
<path d="M514 1975 c-25 -18 -15 -25 14 -9 13 6 20 14 14 18 -5 3 -18 -1 -28
-9z"/>
<path d="M463 1903 c-14 -5 -18 -23 -5 -23 5 0 17 7 28 15 14 11 15 14 4 14
-8 0 -21 -3 -27 -6z"/>
<path d="M465 1850 c-3 -5 3 -10 14 -10 11 0 23 5 26 10 3 6 -3 10 -14 10 -11
0 -23 -4 -26 -10z"/>
<path d="M430 1795 c-17 -20 9 -21 36 0 19 14 19 14 -2 15 -12 0 -27 -7 -34
-15z"/>
<path d="M567 1783 c-13 -13 -7 -21 13 -16 11 3 20 9 20 14 0 10 -24 12 -33 2z"/>
<path d="M515 1762 c-29 -6 -43 -22 -19 -22 20 0 52 16 44 23 -3 2 -14 1 -25
-1z"/>
<path d="M585 1710 c-3 -5 -2 -10 4 -10 5 0 13 5 16 10 3 6 2 10 -4 10 -5 0
-13 -4 -16 -10z"/>
<path d="M503 1693 c-7 -2 -13 -9 -13 -14 0 -14 24 -11 46 6 19 14 19 14 -1
14 -11 0 -26 -3 -32 -6z"/>
<path d="M534 1635 c-18 -14 -18 -14 7 -15 15 0 32 7 39 15 10 12 9 15 -7 15
-10 0 -28 -7 -39 -15z"/>
<path d="M585 1541 c-10 -17 11 -21 31 -6 18 14 18 14 -3 15 -12 0 -24 -4 -28
-9z"/>
<path d="M415 1499 c-12 -19 5 -23 22 -6 16 16 16 17 1 17 -9 0 -20 -5 -23
-11z"/>
<path d="M325 1470 c-3 -5 3 -10 14 -10 12 0 21 5 21 10 0 6 -6 10 -14 10 -8
0 -18 -4 -21 -10z"/>
<path d="M440 1460 c-8 -5 -11 -12 -8 -16 10 -9 38 3 38 16 0 12 -10 13 -30 0z"/>
<path d="M643 1463 c-7 -2 -13 -9 -13 -14 0 -14 26 -10 40 6 10 12 10 15 -1
14 -8 0 -20 -3 -26 -6z"/>
<path d="M380 1430 c0 -5 4 -10 9 -10 6 0 13 5 16 10 3 6 -1 10 -9 10 -9 0
-16 -4 -16 -10z"/>
<path d="M660 1420 c-8 -5 -12 -12 -8 -15 9 -9 48 4 48 16 0 12 -21 11 -40 -1z"/>
<path d="M475 1410 c-3 -5 3 -10 14 -10 11 0 23 5 26 10 3 6 -3 10 -14 10 -11
0 -23 -4 -26 -10z"/>
<path d="M405 1380 c-3 -5 1 -10 9 -10 8 0 18 5 21 10 3 6 -1 10 -9 10 -8 0
-18 -4 -21 -10z"/>
<path d="M573 1383 c-18 -6 -16 -23 1 -23 17 0 30 16 19 23 -5 2 -14 2 -20 0z"/>
<path d="M480 1340 c0 -5 4 -10 9 -10 6 0 13 5 16 10 3 6 -1 10 -9 10 -9 0
-16 -4 -16 -10z"/>
<path d="M585 1331 c-3 -5 -1 -12 5 -16 12 -7 30 2 30 16 0 12 -27 12 -35 0z"/>
<path d="M505 1290 c-3 -5 1 -10 9 -10 8 0 18 5 21 10 3 6 -1 10 -9 10 -8 0
-18 -4 -21 -10z"/>
<path d="M597 1279 c-26 -15 -10 -30 18 -17 26 12 34 28 13 28 -7 0 -21 -5
-31 -11z"/>
<path d="M505 1229 c-4 -6 -5 -13 -2 -16 7 -7 27 6 27 18 0 12 -17 12 -25 -2z"/>
<path d="M445 1210 c-3 -5 1 -10 9 -10 8 0 18 5 21 10 3 6 -1 10 -9 10 -8 0
-18 -4 -21 -10z"/>
<path d="M585 1202 c-33 -7 -42 -22 -13 -22 15 0 30 5 33 11 9 14 4 16 -20 11z"/>
<path d="M3030 1920 c0 -5 9 -10 19 -10 11 0 23 5 26 10 4 6 -5 10 -19 10 -14
0 -26 -4 -26 -10z"/>
<path d="M3055 1879 c-4 -6 -5 -12 -3 -14 7 -7 48 7 48 16 0 13 -37 11 -45 -2z"/>
<path d="M3090 1850 c-8 -5 -11 -12 -8 -16 10 -9 58 4 58 16 0 13 -30 13 -50
0z"/>
<path d="M3020 1820 c0 -5 4 -10 9 -10 6 0 13 5 16 10 3 6 -1 10 -9 10 -9 0
-16 -4 -16 -10z"/>
<path d="M3145 1810 c3 -5 12 -10 20 -10 8 0 17 5 20 10 4 6 -5 10 -20 10 -15
0 -24 -4 -20 -10z"/>
<path d="M3070 1790 c-8 -5 -12 -12 -9 -15 8 -8 39 5 39 16 0 11 -11 11 -30
-1z"/>
<path d="M2995 1770 c-4 -6 5 -10 20 -10 15 0 24 4 20 10 -3 6 -12 10 -20 10
-8 0 -17 -4 -20 -10z"/>
<path d="M3105 1759 c-4 -6 -5 -12 -3 -14 7 -7 48 7 48 16 0 13 -37 11 -45 -2z"/>
<path d="M3150 1720 c-8 -5 -11 -12 -8 -16 11 -10 60 5 53 16 -8 12 -26 12
-45 0z"/>
<path d="M3090 1625 c-7 -8 -23 -15 -36 -15 -25 0 -40 -15 -25 -24 5 -4 22 0
38 8 15 8 36 17 46 20 10 3 15 10 12 16 -9 14 -21 12 -35 -5z"/>
<path d="M3025 1549 c-10 -15 3 -25 16 -12 7 7 7 13 1 17 -6 3 -14 1 -17 -5z"/>
<path d="M2623 1643 c-18 -2 -33 -9 -33 -14 0 -15 93 -6 98 9 4 12 -3 13 -65
5z"/>
<path d="M2570 1570 c0 -6 28 -10 65 -10 37 0 65 4 65 10 0 6 -28 10 -65 10
-37 0 -65 -4 -65 -10z"/>
<path d="M2530 1520 c8 -5 29 -10 45 -10 23 0 27 3 15 10 -8 5 -28 10 -45 10
-23 0 -27 -3 -15 -10z"/>
<path d="M2647 1523 c-4 -6 13 -13 40 -17 66 -9 103 -7 103 4 0 6 -11 10 -24
10 -13 0 -43 3 -68 6 -26 4 -48 2 -51 -3z"/>
<path d="M2730 1440 c0 -5 12 -10 26 -10 14 0 23 4 19 10 -3 6 -15 10 -26 10
-10 0 -19 -4 -19 -10z"/>
<path d="M2800 1441 c0 -12 29 -23 41 -15 5 3 7 10 4 15 -8 12 -45 12 -45 0z"/>
<path d="M2730 1352 c0 -4 36 -7 80 -7 44 0 80 3 80 7 0 5 -36 8 -80 8 -44 0
-80 -3 -80 -8z"/>
<path d="M2665 1270 c-8 -13 20 -24 46 -17 11 3 34 1 52 -4 29 -8 60 2 40 14
-19 11 -132 17 -138 7z"/>
<path d="M2680 1191 c0 -16 18 -22 45 -15 37 9 31 24 -10 24 -19 0 -35 -4 -35
-9z"/>
<path d="M2580 1121 c0 -9 98 -21 113 -14 4 3 5 9 2 14 -8 12 -115 12 -115 0z"/>
<path d="M2570 1010 c-20 -7 -16 -8 22 -9 26 -1 50 4 53 9 7 12 -38 12 -75 0z"/>
<path d="M957 1300 c-12 -34 -28 -113 -23 -117 6 -7 38 107 33 120 -3 8 -7 7
-10 -3z"/>
<path d="M987 1274 c-4 -4 -7 -28 -6 -53 l1 -46 9 45 c9 48 8 66 -4 54z"/>
<path d="M1072 1183 c-21 -99 -25 -128 -14 -118 5 6 17 42 26 82 19 84 19 83
7 83 -5 0 -14 -21 -19 -47z"/>
<path d="M915 1127 c-4 -10 -5 -21 -1 -24 10 -10 18 4 13 24 -4 17 -4 17 -12
0z"/>
<path d="M968 1127 c-5 -10 -8 -31 -8 -45 1 -24 2 -25 11 -9 6 10 9 30 7 45
-2 23 -4 24 -10 9z"/>
<path d="M1017 1117 c-4 -10 -7 -31 -6 -45 l0 -27 10 25 c5 13 8 33 7 45 -3
19 -4 19 -11 2z"/>
<path d="M1080 1066 c-6 -9 -10 -21 -8 -28 3 -8 9 -4 17 10 15 28 9 39 -9 18z"/>
<path d="M942 1038 c-7 -7 -12 -21 -12 -32 1 -18 3 -17 16 7 17 31 15 44 -4
25z"/>
<path d="M988 1014 c-5 -4 -8 -16 -8 -28 0 -14 3 -17 11 -9 6 6 9 19 7 28 -1
9 -6 13 -10 9z"/>
<path d="M1022 988 c-7 -7 -12 -21 -12 -32 1 -18 3 -17 16 7 17 31 15 44 -4
25z"/>
<path d="M1047 970 c-20 -47 -29 -80 -23 -80 9 0 47 93 42 104 -2 6 -10 -5
-19 -24z"/>
<path d="M951 876 c-6 -16 -10 -37 -8 -45 5 -25 29 26 24 52 -3 20 -4 20 -16
-7z"/>
<path d="M980 829 c0 -11 5 -17 10 -14 6 3 10 13 10 21 0 8 -4 14 -10 14 -5 0
-10 -9 -10 -21z"/>
<path d="M2470 1361 c0 -13 29 -35 37 -28 7 8 -15 37 -28 37 -5 0 -9 -4 -9 -9z"/>
<path d="M2420 1255 c0 -8 7 -15 15 -15 8 0 15 4 15 9 0 5 -7 11 -15 15 -9 3
-15 0 -15 -9z"/>
<path d="M2370 1233 c1 -14 30 -47 36 -41 8 8 -14 48 -26 48 -6 0 -10 -3 -10
-7z"/>
<path d="M2324 1174 c3 -9 6 -18 6 -20 0 -2 7 -4 15 -4 18 0 19 12 3 28 -17
17 -31 15 -24 -4z"/>
<path d="M2260 1152 c0 -14 36 -43 43 -35 4 3 0 15 -10 25 -17 19 -33 24 -33
10z"/>
<path d="M2210 1122 c0 -15 28 -47 35 -40 8 8 -13 48 -25 48 -6 0 -10 -4 -10
-8z"/>
<path d="M1940 1111 c0 -5 7 -14 15 -21 12 -10 15 -10 15 3 0 8 -7 17 -15 21
-8 3 -15 2 -15 -3z"/>
<path d="M2130 1108 c0 -18 27 -44 37 -34 4 4 -3 16 -15 29 -18 17 -22 18 -22
5z"/>
<path d="M2092 1070 c13 -20 28 -27 28 -12 0 10 -22 32 -32 32 -5 0 -3 -9 4
-20z"/>
<path d="M2022 1069 c2 -7 10 -15 17 -17 8 -3 12 1 9 9 -2 7 -10 15 -17 17 -8
3 -12 -1 -9 -9z"/>
<path d="M273 1107 c-51 -14 -71 -32 -27 -24 38 7 105 35 84 35 -8 0 -34 -5
-57 -11z"/>
<path d="M295 1070 c-4 -6 6 -10 24 -10 16 0 33 5 36 10 4 6 -6 10 -24 10 -16
0 -33 -4 -36 -10z"/>
<path d="M248 1053 c-16 -2 -28 -9 -28 -14 0 -14 24 -11 46 6 10 8 17 14 14
13 -3 0 -17 -3 -32 -5z"/>
<path d="M290 1020 c-8 -5 -25 -10 -37 -10 -12 0 -25 -5 -29 -11 -10 -17 87
-1 106 17 12 12 12 14 -5 14 -11 0 -27 -5 -35 -10z"/>
<path d="M235 951 c-10 -17 10 -20 35 -5 l25 13 -27 1 c-15 0 -29 -4 -33 -9z"/>
<path d="M291 919 c-54 -24 -48 -35 11 -18 50 14 85 39 53 38 -11 0 -40 -9
-64 -20z"/>
<path d="M425 915 c-39 -17 -11 -18 35 0 23 9 28 14 15 14 -11 0 -33 -6 -50
-14z"/>
<path d="M290 870 c-8 -5 -12 -12 -8 -15 9 -9 48 4 48 16 0 12 -21 11 -40 -1z"/>
<path d="M392 860 c-24 -11 -41 -24 -37 -30 7 -12 85 25 85 40 0 13 3 13 -48
-10z"/>
<path d="M473 833 c-43 -15 -62 -41 -21 -27 38 12 88 34 88 39 0 8 -23 4 -67
-12z"/>
<path d="M510 803 c-30 -8 -62 -21 -70 -29 -20 -20 0 -18 55 6 26 11 55 20 66
20 10 0 19 5 19 10 0 12 -1 12 -70 -7z"/>
<path d="M333 783 c-14 -5 -18 -23 -5 -23 5 0 17 7 28 15 14 11 15 14 4 14 -8
0 -21 -3 -27 -6z"/>
<path d="M540 750 c-13 -8 -13 -10 2 -10 9 0 20 5 23 10 8 13 -5 13 -25 0z"/>
<path d="M333 734 c-37 -16 -42 -24 -15 -24 20 0 60 26 52 33 -3 2 -20 -2 -37
-9z"/>
<path d="M443 715 c-18 -8 -33 -17 -33 -21 0 -9 50 5 74 22 27 18 2 18 -41 -1z"/>
<path d="M603 723 c-21 -8 -15 -22 7 -16 11 3 20 9 20 14 0 10 -8 10 -27 2z"/>
<path d="M1461 826 c-8 -9 -11 -19 -7 -23 9 -9 29 13 24 27 -2 8 -8 7 -17 -4z"/>
<path d="M747 823 c-4 -3 -7 -13 -7 -21 0 -12 3 -12 15 -2 8 7 15 16 15 21 0
11 -14 12 -23 2z"/>
<path d="M1255 790 c-21 -23 -4 -27 19 -4 18 17 20 24 8 24 -5 0 -17 -9 -27
-20z"/>
<path d="M751 729 c-29 -66 -21 -74 9 -9 13 27 21 52 18 55 -3 3 -15 -17 -27
-46z"/>
<path d="M1125 694 c-54 -57 -93 -108 -78 -103 18 7 136 139 130 146 -4 3 -27
-16 -52 -43z"/>
<path d="M1200 705 c-22 -27 -5 -37 19 -11 19 20 21 26 9 26 -9 0 -21 -7 -28
-15z"/>
<path d="M776 678 c-3 -13 -6 -27 -6 -33 1 -15 30 27 30 42 0 22 -17 15 -24
-9z"/>
<path d="M740 599 c-13 -24 -4 -41 10 -19 10 16 13 40 5 40 -2 0 -9 -9 -15
-21z"/>
<path d="M781 574 c-28 -61 -20 -69 9 -9 12 25 20 48 17 51 -3 3 -15 -16 -26
-42z"/>
<path d="M886 564 c-10 -25 1 -29 14 -5 6 12 7 21 1 21 -5 0 -12 -7 -15 -16z"/>
<path d="M805 527 c-22 -53 -17 -70 6 -18 11 24 17 46 14 49 -2 3 -12 -11 -20
-31z"/>
<path d="M989 533 c-23 -26 -41 -63 -31 -63 12 0 54 59 50 71 -2 6 -11 2 -19
-8z"/>
<path d="M840 465 c0 -8 2 -15 4 -15 2 0 6 7 10 15 3 8 1 15 -4 15 -6 0 -10
-7 -10 -15z"/>
<path d="M910 429 c-7 -11 -9 -24 -5 -27 7 -7 35 25 35 40 0 16 -19 8 -30 -13z"/>
<path d="M820 426 c-6 -9 -10 -21 -8 -28 3 -8 9 -4 17 10 15 28 9 39 -9 18z"/>
<path d="M2018 914 c-9 -8 9 -44 22 -44 14 0 12 13 -3 34 -7 9 -16 14 -19 10z"/>
<path d="M1932 884 c21 -47 33 -64 45 -64 11 0 9 8 -7 30 -20 28 -47 52 -38
34z"/>
<path d="M2052 849 c2 -7 10 -15 17 -17 8 -3 12 1 9 9 -2 7 -10 15 -17 17 -8
3 -12 -1 -9 -9z"/>
<path d="M1860 815 c7 -9 15 -13 17 -11 7 7 -7 26 -19 26 -6 0 -6 -6 2 -15z"/>
<path d="M2000 786 c0 -8 5 -18 10 -21 6 -3 10 1 10 9 0 8 -4 18 -10 21 -5 3
-10 -1 -10 -9z"/>
<path d="M1890 784 c0 -17 28 -49 36 -41 4 4 -2 17 -14 30 -12 12 -22 17 -22
11z"/>
<path d="M1950 777 c0 -8 7 -21 16 -28 14 -11 15 -10 12 11 -3 26 -28 41 -28
17z"/>
<path d="M2060 750 c11 -20 30 -28 30 -12 0 11 -22 32 -32 32 -5 0 -4 -9 2
-20z"/>
<path d="M1870 731 c0 -12 5 -21 10 -21 6 0 10 6 10 14 0 8 -4 18 -10 21 -5 3
-10 -3 -10 -14z"/>
<path d="M1996 705 c4 -8 10 -15 15 -15 4 0 6 7 3 15 -4 8 -10 15 -15 15 -4 0
-6 -7 -3 -15z"/>
<path d="M1790 685 c0 -8 7 -15 15 -15 9 0 12 6 9 15 -4 8 -10 15 -15 15 -5 0
-9 -7 -9 -15z"/>
<path d="M1670 635 c0 -8 5 -15 10 -15 6 0 10 7 10 15 0 8 -4 15 -10 15 -5 0
-10 -7 -10 -15z"/>
<path d="M1770 642 c0 -5 7 -15 15 -22 8 -7 15 -8 15 -2 0 5 -7 15 -15 22 -8
7 -15 8 -15 2z"/>
<path d="M1722 629 c2 -7 10 -15 17 -17 8 -3 12 1 9 9 -2 7 -10 15 -17 17 -8
3 -12 -1 -9 -9z"/>
<path d="M1660 576 c0 -8 5 -18 10 -21 6 -3 10 1 10 9 0 8 -4 18 -10 21 -5 3
-10 -1 -10 -9z"/>
<path d="M1950 542 c0 -5 7 -15 15 -22 8 -7 15 -8 15 -2 0 5 -7 15 -15 22 -8
7 -15 8 -15 2z"/>
<path d="M2010 446 c0 -9 7 -19 15 -23 25 -9 27 2 5 22 -18 17 -20 17 -20 1z"/>
<path d="M3030 792 c0 -12 61 -55 68 -47 3 3 -7 17 -23 30 -31 25 -45 31 -45
17z"/>
<path d="M2842 668 c2 -7 29 -30 59 -51 64 -44 107 -67 65 -35 -17 13 -47 40
-68 61 -37 37 -63 48 -56 25z"/>
<path d="M2964 631 c12 -18 147 -123 152 -118 6 6 -42 51 -105 99 -36 27 -57
36 -47 19z"/>
<path d="M2350 662 c0 -5 7 -15 15 -22 8 -7 15 -8 15 -2 0 5 -7 15 -15 22 -8
7 -15 8 -15 2z"/>
<path d="M1420 569 c0 -5 5 -7 10 -4 6 3 10 8 10 11 0 2 -4 4 -10 4 -5 0 -10
-5 -10 -11z"/>
<path d="M2295 480 c3 -5 11 -10 16 -10 6 0 7 5 4 10 -3 6 -11 10 -16 10 -6 0
-7 -4 -4 -10z"/>
<path d="M2240 399 c7 -11 14 -19 16 -16 7 7 -7 37 -17 37 -6 0 -5 -9 1 -21z"/>
<path d="M1395 304 c-3 -22 -10 -59 -14 -84 -10 -47 -8 -56 7 -46 15 9 37 145
24 158 -8 8 -12 0 -17 -28z"/>
<path d="M1493 320 c-15 -36 -28 -174 -15 -166 15 9 34 108 30 153 -4 37 -4
37 -15 13z"/>
<path d="M1710 220 c0 -33 4 -60 10 -60 6 0 10 27 10 60 0 33 -4 60 -10 60 -6
0 -10 -27 -10 -60z"/>
<path d="M1430 199 c-7 -39 -9 -73 -6 -76 7 -7 12 7 25 75 13 65 13 72 2 72
-5 0 -15 -32 -21 -71z"/>
<path d="M1877 203 c6 -66 9 -81 16 -72 8 8 -6 139 -14 139 -4 0 -6 -30 -2
-67z"/>
<path d="M1790 206 c0 -25 5 -48 10 -51 6 -4 10 13 10 44 0 28 -4 51 -10 51
-5 0 -10 -20 -10 -44z"/>
<path d="M1617 213 c-11 -10 -8 -53 3 -53 6 0 10 14 10 30 0 31 -2 35 -13 23z"/>
<path d="M1660 185 c0 -14 5 -25 10 -25 6 0 10 11 10 25 0 14 -4 25 -10 25 -5
0 -10 -11 -10 -25z"/>
<path d="M1840 156 c0 -31 5 -56 10 -56 6 0 10 22 10 49 0 28 -4 53 -10 56 -6
4 -10 -15 -10 -49z"/>
<path d="M1955 170 c-8 -13 3 -50 16 -50 12 0 12 47 0 55 -5 3 -12 1 -16 -5z"/>
<path d="M1522 145 c0 -16 2 -22 5 -12 2 9 2 23 0 30 -3 6 -5 -1 -5 -18z"/>
<path d="M1507 93 c-11 -10 -8 -43 3 -43 6 0 10 11 10 25 0 26 -2 29 -13 18z"/>
</g>
</svg>
